<svg
 width="820.0"
 height="1117.0"
 viewBox="0 0 820 1117"
 version="1.2"
 baseProfile="tiny"
 xmlns="http://www.w3.org/2000/svg"
>
<line stroke="#000000" stroke-width="1" x1="80.0" y1="60.0" x2="80.0" y2="1057.0" stroke-dasharray="5,5"/>
<line stroke="#000000" stroke-width="1" x1="220.0" y1="60.0" x2="220.0" y2="1057.0" stroke-dasharray="5,5"/>
<line stroke="#000000" stroke-width="1" x1="360.0" y1="60.0" x2="360.0" y2="1057.0" stroke-dasharray="5,5"/>
<line stroke="#000000" stroke-width="1" x1="500.0" y1="60.0" x2="500.0" y2="1057.0" stroke-dasharray="5,5"/>
<line stroke="#000000" stroke-width="1" x1="640.0" y1="60.0" x2="640.0" y2="1057.0" stroke-dasharray="5,5"/>
<g id="message-0">
  <line stroke="#000000" stroke-width="2" x1="80.0" y1="120.0" x2="212.0" y2="120.0"/>
  <polygon fill="#000000" stroke="#000000" points="220,120 212,116 212,124"/>
  <text fill="#000000" x="150.0" y="110.0" text-anchor="middle" font-family="Arial, sans-serif" font-size="12">Request Product Page</text>
</g>
<g id="message-1">
  <line stroke="#000000" stroke-width="2" x1="220.0" y1="180.0" x2="632.0" y2="180.0"/>
  <polygon fill="#000000" stroke="#000000" points="640,180 632,176 632,184"/>
  <text fill="#000000" x="430.0" y="170.0" text-anchor="middle" font-family="Arial, sans-serif" font-size="12">Check Cache</text>
</g>
<g id="message-2">
  <line stroke="#000000" stroke-width="2" x1="640.0" y1="240.0" x2="228.0" y2="240.0" stroke-dasharray="5,5"/>
  <polygon fill="#000000" stroke="#000000" points="220,240 228,236 228,244"/>
  <text fill="#000000" x="430.0" y="230.0" text-anchor="middle" font-family="Arial, sans-serif" font-size="12">Cache Miss</text>
</g>
<g id="message-3">
  <line stroke="#000000" stroke-width="2" x1="220.0" y1="300.0" x2="352.0" y2="300.0"/>
  <polygon fill="#000000" stroke="#000000" points="360,300 352,296 352,304"/>
  <text fill="#000000" x="290.0" y="290.0" text-anchor="middle" font-family="Arial, sans-serif" font-size="12">GET /api/product/123</text>
</g>
<g id="message-4">
  <line stroke="#000000" stroke-width="2" x1="360.0" y1="360.0" x2="492.0" y2="360.0"/>
  <polygon fill="#000000" stroke="#000000" points="500,360 492,356 492,364"/>
  <text fill="#000000" x="430.0" y="350.0" text-anchor="middle" font-family="Arial, sans-serif" font-size="12">SELECT * FROM products WHERE id=123</text>
</g>
<g id="message-5">
  <line stroke="#000000" stroke-width="2" x1="500.0" y1="420.0" x2="368.0" y2="420.0" stroke-dasharray="5,5"/>
  <polygon fill="#000000" stroke="#000000" points="360,420 368,416 368,424"/>
  <text fill="#000000" x="430.0" y="410.0" text-anchor="middle" font-family="Arial, sans-serif" font-size="12">Product Data</text>
</g>
<g id="message-6">
  <line stroke="#000000" stroke-width="2" x1="360.0" y1="480.0" x2="228.0" y2="480.0" stroke-dasharray="5,5"/>
  <polygon fill="#000000" stroke="#000000" points="220,480 228,476 228,484"/>
  <text fill="#000000" x="290.0" y="470.0" text-anchor="middle" font-family="Arial, sans-serif" font-size="12">JSON Response</text>
</g>
<g id="message-7">
  <line stroke="#000000" stroke-width="2" x1="220.0" y1="540.0" x2="632.0" y2="540.0"/>
  <polygon fill="#000000" stroke="#000000" points="640,540 632,536 632,544"/>
  <text fill="#000000" x="430.0" y="530.0" text-anchor="middle" font-family="Arial, sans-serif" font-size="12">Store in Cache</text>
</g>
<g id="message-8">
  <line stroke="#000000" stroke-width="2" x1="640.0" y1="600.0" x2="228.0" y2="600.0" stroke-dasharray="5,5"/>
  <polygon fill="#000000" stroke="#000000" points="220,600 228,596 228,604"/>
  <text fill="#000000" x="430.0" y="590.0" text-anchor="middle" font-family="Arial, sans-serif" font-size="12">Cached</text>
</g>
<g id="message-9">
  <line stroke="#000000" stroke-width="2" x1="220.0" y1="660.0" x2="88.0" y2="660.0" stroke-dasharray="5,5"/>
  <polygon fill="#000000" stroke="#000000" points="80,660 88,656 88,664"/>
  <text fill="#000000" x="150.0" y="650.0" text-anchor="middle" font-family="Arial, sans-serif" font-size="12">Render Product Page</text>
</g>
<g id="message-10">
  <line stroke="#000000" stroke-width="2" x1="80.0" y1="777.0" x2="212.0" y2="777.0"/>
  <polygon fill="#000000" stroke="#000000" points="220,777 212,773 212,781"/>
  <text fill="#000000" x="150.0" y="767.0" text-anchor="middle" font-family="Arial, sans-serif" font-size="12">Refresh Page</text>
</g>
<g id="message-11">
  <line stroke="#000000" stroke-width="2" x1="220.0" y1="837.0" x2="632.0" y2="837.0"/>
  <polygon fill="#000000" stroke="#000000" points="640,837 632,833 632,841"/>
  <text fill="#000000" x="430.0" y="827.0" text-anchor="middle" font-family="Arial, sans-serif" font-size="12">Check Cache</text>
</g>
<g id="message-12">
  <line stroke="#000000" stroke-width="2" x1="640.0" y1="897.0" x2="228.0" y2="897.0" stroke-dasharray="5,5"/>
  <polygon fill="#000000" stroke="#000000" points="220,897 228,893 228,901"/>
  <text fill="#000000" x="430.0" y="887.0" text-anchor="middle" font-family="Arial, sans-serif" font-size="12">Cache Hit</text>
</g>
<g id="message-13">
  <line stroke="#000000" stroke-width="2" x1="220.0" y1="957.0" x2="88.0" y2="957.0" stroke-dasharray="5,5"/>
  <polygon fill="#000000" stroke="#000000" points="80,957 88,953 88,961"/>
  <text fill="#000000" x="150.0" y="947.0" text-anchor="middle" font-family="Arial, sans-serif" font-size="12">Render Product Page (Fast)</text>
</g>
<g id="participant-User">
  <rect fill="#ffffff" stroke="#000000" stroke-width="2" x="20.0" y="20.0" width="120.0" height="40.0" rx="5.0" ry="5.0"/>
  <text fill="#000000" x="80.0" y="44.9" text-anchor="middle" font-family="Arial, sans-serif" font-size="14">User</text>
</g>
<g id="participant-WebApp">
  <rect fill="#ffffff" stroke="#000000" stroke-width="2" x="160.0" y="20.0" width="120.0" height="40.0" rx="5.0" ry="5.0"/>
  <text fill="#000000" x="220.0" y="44.9" text-anchor="middle" font-family="Arial, sans-serif" font-size="14">WebApp</text>
</g>
<g id="participant-API">
  <rect fill="#ffffff" stroke="#000000" stroke-width="2" x="300.0" y="20.0" width="120.0" height="40.0" rx="5.0" ry="5.0"/>
  <text fill="#000000" x="360.0" y="44.9" text-anchor="middle" font-family="Arial, sans-serif" font-size="14">API</text>
</g>
<g id="participant-Database">
  <rect fill="#ffffff" stroke="#000000" stroke-width="2" x="440.0" y="20.0" width="120.0" height="40.0" rx="5.0" ry="5.0"/>
  <text fill="#000000" x="500.0" y="44.9" text-anchor="middle" font-family="Arial, sans-serif" font-size="14">Database</text>
</g>
<g id="participant-Cache">
  <rect fill="#ffffff" stroke="#000000" stroke-width="2" x="580.0" y="20.0" width="120.0" height="40.0" rx="5.0" ry="5.0"/>
  <text fill="#000000" x="640.0" y="44.9" text-anchor="middle" font-family="Arial, sans-serif" font-size="14">Cache</text>
</g>
<g>
  <rect fill="#fff5ad" stroke="#aaaa33" stroke-width="1" x="55.0" y="675.0" width="610.0" height="37.0"/>
  <text fill="#000000" x="360.0" y="697.7" text-anchor="middle" font-family="Arial, sans-serif" font-size="12">Subsequent request will hit cache</text>
</g>
</svg>