<svg
 width="859.0"
 height="611.0"
 viewBox="0 0 859.0 611"
 version="1.2"
 baseProfile="tiny"
 xmlns="http://www.w3.org/2000/svg"
>
<line stroke="#000000" stroke-width="1" x1="125.0" y1="75.0" x2="125.0" y2="535.0" stroke-dasharray="5,5"/>
<line stroke="#000000" stroke-width="1" x1="334.0" y1="75.0" x2="334.0" y2="535.0" stroke-dasharray="5,5"/>
<line stroke="#000000" stroke-width="1" x1="534.0" y1="75.0" x2="534.0" y2="535.0" stroke-dasharray="5,5"/>
<line stroke="#000000" stroke-width="1" x1="734.0" y1="75.0" x2="734.0" y2="535.0" stroke-dasharray="5,5"/>
<g id="message-0">
  <line stroke="#000000" stroke-width="2" x1="125.0" y1="119.0" x2="326.0" y2="119.0"/>
  <polygon fill="#000000" stroke="#000000" points="334.0,119 326.0,115 326.0,123"/>
  <text fill="#000000" x="229.5" y="109.0" text-anchor="middle" font-family="Arial, sans-serif" font-size="16">Request data</text>
</g>
<g id="message-1">
  <line stroke="#000000" stroke-width="2" x1="334.0" y1="163.0" x2="526.0" y2="163.0"/>
  <polygon fill="#000000" stroke="#000000" points="534.0,163 526.0,159 526.0,167"/>
  <text fill="#000000" x="434.0" y="153.0" text-anchor="middle" font-family="Arial, sans-serif" font-size="16">Query data</text>
</g>
<g id="message-2">
  <line stroke="#000000" stroke-width="2" x1="534.0" y1="207.0" x2="342.0" y2="207.0" stroke-dasharray="5,5"/>
  <polygon fill="#000000" stroke="#000000" points="334.0,207 342.0,203 342.0,211"/>
  <text fill="#000000" x="434.0" y="197.0" text-anchor="middle" font-family="Arial, sans-serif" font-size="16">Return results</text>
</g>
<g id="message-3">
  <line stroke="#000000" stroke-width="2" x1="334.0" y1="251.0" x2="726.0" y2="251.0"/>
  <polygon fill="#000000" stroke="#000000" points="734.0,251 726.0,247 726.0,255"/>
  <text fill="#000000" x="534.0" y="241.0" text-anchor="middle" font-family="Arial, sans-serif" font-size="16">Store in cache</text>
</g>
<g id="message-4">
  <line stroke="#000000" stroke-width="2" x1="734.0" y1="295.0" x2="342.0" y2="295.0" stroke-dasharray="5,5"/>
  <polygon fill="#000000" stroke="#000000" points="334.0,295 342.0,291 342.0,299"/>
  <text fill="#000000" x="534.0" y="285.0" text-anchor="middle" font-family="Arial, sans-serif" font-size="16">Cached</text>
</g>
<g id="message-5">
  <line stroke="#000000" stroke-width="2" x1="334.0" y1="339.0" x2="133.0" y2="339.0" stroke-dasharray="5,5"/>
  <polygon fill="#000000" stroke="#000000" points="125,339 133,335 133,343"/>
  <text fill="#000000" x="229.5" y="329.0" text-anchor="middle" font-family="Arial, sans-serif" font-size="16">Response</text>
</g>
<g id="message-6">
  <line stroke="#000000" stroke-width="2" x1="125.0" y1="383.0" x2="326.0" y2="383.0"/>
  <polygon fill="#000000" stroke="#000000" points="334.0,383 326.0,379 326.0,387"/>
  <text fill="#000000" x="229.5" y="373.0" text-anchor="middle" font-family="Arial, sans-serif" font-size="16">Request same data</text>
</g>
<g id="message-7">
  <line stroke="#000000" stroke-width="2" x1="334.0" y1="427.0" x2="726.0" y2="427.0"/>
  <polygon fill="#000000" stroke="#000000" points="734.0,427 726.0,423 726.0,431"/>
  <text fill="#000000" x="534.0" y="417.0" text-anchor="middle" font-family="Arial, sans-serif" font-size="16">Check cache</text>
</g>
<g id="message-8">
  <line stroke="#000000" stroke-width="2" x1="734.0" y1="471.0" x2="342.0" y2="471.0" stroke-dasharray="5,5"/>
  <polygon fill="#000000" stroke="#000000" points="334.0,471 342.0,467 342.0,475"/>
  <text fill="#000000" x="534.0" y="461.0" text-anchor="middle" font-family="Arial, sans-serif" font-size="16">Cache hit</text>
</g>
<g id="message-9">
  <line stroke="#000000" stroke-width="2" x1="334.0" y1="515.0" x2="133.0" y2="515.0" stroke-dasharray="5,5"/>
  <polygon fill="#000000" stroke="#000000" points="125,515 133,511 133,519"/>
  <text fill="#000000" x="229.5" y="505.0" text-anchor="middle" font-family="Arial, sans-serif" font-size="16">Fast response</text>
</g>
<g id="participant-Client">
  <rect fill="#ffffff" stroke="#000000" stroke-width="2" x="50.0" y="10.0" width="150.0" height="65.0" rx="5.0" ry="5.0"/>
  <text fill="#000000" x="125.0" y="47.6" text-anchor="middle" font-family="Arial, sans-serif" font-size="16">Client</text>
</g>
<g id="participant-Server">
  <rect fill="#ffffff" stroke="#000000" stroke-width="2" x="259.0" y="10.0" width="150.0" height="65.0" rx="5.0" ry="5.0"/>
  <text fill="#000000" x="334.0" y="47.6" text-anchor="middle" font-family="Arial, sans-serif" font-size="16">Server</text>
</g>
<g id="participant-Database">
  <rect fill="#ffffff" stroke="#000000" stroke-width="2" x="459.0" y="10.0" width="150.0" height="65.0" rx="5.0" ry="5.0"/>
  <text fill="#000000" x="534.0" y="47.6" text-anchor="middle" font-family="Arial, sans-serif" font-size="16">Database</text>
</g>
<g id="participant-Cache">
  <rect fill="#ffffff" stroke="#000000" stroke-width="2" x="659.0" y="10.0" width="150.0" height="65.0" rx="5.0" ry="5.0"/>
  <text fill="#000000" x="734.0" y="47.6" text-anchor="middle" font-family="Arial, sans-serif" font-size="16">Cache</text>
</g>
</svg>