<svg
 width="790.0"
 height="450.0"
 viewBox="0 0 790 450"
 version="1.2"
 xmlns="http://www.w3.org/2000/svg"
>
<g id="rel_0">
  <line stroke="#707070" stroke-width="2" x1="120.0" y1="140.0" x2="372.0" y2="110.0"/>
  <polygon fill="#707070" stroke="#707070" points="380,110 372,106 372,114"/>
  <text fill="#000000" x="250.0" y="110.0" text-anchor="middle" font-family="Arial, sans-serif" font-size="12">Uses</text>
</g>
<g id="rel_1">
  <line stroke="#707070" stroke-width="2" x1="380.0" y1="110.0" x2="622.0" y2="110.0"/>
  <polygon fill="#707070" stroke="#707070" points="630,110 622,106 622,114"/>
  <text fill="#000000" x="505.0" y="95.0" text-anchor="middle" font-family="Arial, sans-serif" font-size="12">Sends emails</text>
</g>
<g id="rel_2">
  <line stroke="#707070" stroke-width="2" x1="380.0" y1="110.0" x2="122.0" y2="310.0"/>
  <polygon fill="#707070" stroke="#707070" points="130,310 138,306 138,314"/>
  <text fill="#000000" x="255.0" y="195.0" text-anchor="middle" font-family="Arial, sans-serif" font-size="12">Reads/Writes</text>
</g>
<g id="element-user">
  <rect fill="#08427B" stroke="#073B6F" stroke-width="2" x="50.0" y="50.0" width="140.0" height="180.0" rx="10.0" ry="10.0"/>
  <circle fill="#FFFFFF" cx="120.0" cy="80.0" r="16.0"/>
  <ellipse fill="#FFFFFF"/>
  <text fill="#FFFFFF" x="120.0" y="145.0" text-anchor="middle" font-family="Arial, sans-serif" font-size="14" font-weight="bold" font-style="normal">User</text>
  <text fill="#FFFFFF" x="120.0" y="161.0" text-anchor="middle" font-family="Arial, sans-serif" font-size="11" font-weight="normal" font-style="normal">A system user</text>
</g>
<g id="element-webapp">
  <rect fill="#1168BD" stroke="#0B4884" stroke-width="2" x="300.0" y="50.0" width="160.0" height="120.0" rx="5.0" ry="5.0"/>
  <text fill="#FFFFFF" x="380.0" y="70.0" text-anchor="middle" font-family="Arial, sans-serif" font-size="14" font-weight="bold" font-style="normal">Web Application</text>
  <text fill="#FFFFFF" x="380.0" y="86.0" text-anchor="middle" font-family="Arial, sans-serif" font-size="11" font-weight="normal" font-style="normal">Main application</text>
</g>
<g id="element-email">
  <rect fill="#1168BD" stroke="#0B4884" stroke-width="2" x="550.0" y="50.0" width="160.0" height="120.0" rx="5.0" ry="5.0"/>
  <text fill="#FFFFFF" x="630.0" y="70.0" text-anchor="middle" font-family="Arial, sans-serif" font-size="14" font-weight="bold" font-style="normal">Email System</text>
  <text fill="#FFFFFF" x="630.0" y="86.0" text-anchor="middle" font-family="Arial, sans-serif" font-size="11" font-weight="normal" font-style="normal">Sends notifications</text>
</g>
<g id="element-db">
  <rect fill="#1168BD" stroke="#0B4884" stroke-width="2" x="50.0" y="250.0" width="160.0" height="120.0" rx="5.0" ry="5.0"/>
  <text fill="#FFFFFF" x="130.0" y="270.0" text-anchor="middle" font-family="Arial, sans-serif" font-size="14" font-weight="bold" font-style="normal">Database</text>
  <text fill="#FFFFFF" x="130.0" y="286.0" text-anchor="middle" font-family="Arial, sans-serif" font-size="11" font-weight="normal" font-style="normal">Stores user data</text>
</g>
</svg>