<svg
 width="1050.0"
 height="290.0"
 viewBox="0 0 1050 290"
 version="1.2"
 baseProfile="tiny"
 xmlns="http://www.w3.org/2000/svg"
>
<text fill="#000000" x="600.0" y="40.0" text-anchor="middle" font-family="Arial, Helvetica, sans-serif" font-size="16.0" font-weight="bold">Project Schedule</text>
<rect fill="#ffffff" stroke="#000000" stroke-width="1" x="200.0" y="80.0" width="800.0" height="40.0"/>
<text fill="#000000" x="200.0" y="110.0" text-anchor="middle" font-family="Arial, Helvetica, sans-serif" font-size="12.0">12-31</text>
<text fill="#000000" x="375.0" y="110.0" text-anchor="middle" font-family="Arial, Helvetica, sans-serif" font-size="12.0">01-07</text>
<text fill="#000000" x="550.0" y="110.0" text-anchor="middle" font-family="Arial, Helvetica, sans-serif" font-size="12.0">01-14</text>
<text fill="#000000" x="725.0" y="110.0" text-anchor="middle" font-family="Arial, Helvetica, sans-serif" font-size="12.0">01-21</text>
<text fill="#000000" x="900.0" y="110.0" text-anchor="middle" font-family="Arial, Helvetica, sans-serif" font-size="12.0">01-28</text>
<line stroke="#000000" stroke-width="1" x1="200.0" y1="120.0" x2="200.0" y2="240.0" stroke-dasharray="2,2"/>
<line stroke="#000000" stroke-width="1" x1="375.0" y1="120.0" x2="375.0" y2="240.0" stroke-dasharray="2,2"/>
<line stroke="#000000" stroke-width="1" x1="550.0" y1="120.0" x2="550.0" y2="240.0" stroke-dasharray="2,2"/>
<line stroke="#000000" stroke-width="1" x1="725.0" y1="120.0" x2="725.0" y2="240.0" stroke-dasharray="2,2"/>
<line stroke="#000000" stroke-width="1" x1="900.0" y1="120.0" x2="900.0" y2="240.0" stroke-dasharray="2,2"/>
<rect fill="#f0f0f0" stroke="none" x="0.0" y="120.0" width="1050.0" height="30.0"/>
<text fill="#000000" x="10.0" y="139.9" font-family="Arial, Helvetica, sans-serif" font-size="14" font-weight="bold">Phase 1</text>
<text fill="#000000" x="10.0" y="174.2" font-family="Arial, Helvetica, sans-serif" font-size="12.0">Task 1</text>
<rect fill="#428BCA" stroke="#000000" stroke-width="1" x="200.0" y="158.0" width="20.0" height="24.0" rx="3.0" ry="3.0"/>
<text fill="#000000" x="10.0" y="214.2" font-family="Arial, Helvetica, sans-serif" font-size="12.0">Task 2</text>
<rect fill="#428BCA" stroke="#000000" stroke-width="1" x="200.0" y="198.0" width="20.0" height="24.0" rx="3.0" ry="3.0"/>
</svg>