<svg
 width="546.0"
 height="410.0"
 viewBox="0 0 546 410"
 version="1.2"
 xmlns="http://www.w3.org/2000/svg"
>
<path fill="#4472C4" stroke="none" opacity="0.4" d="M 95 95.0 C 152.5 95.0, 152.5 95.0, 210 95.0 L 210 145.0 C 152.5 145.0, 152.5 145.0, 95 145.0 Z"/>
<text fill="#000000" x="152.5" y="120.0" text-anchor="middle" font-family="Arial, Helvetica, sans-serif" font-size="12.0">100</text>
<path fill="#ED7D31" stroke="none" opacity="0.4" d="M 95 107.0 C 152.5 107.0, 152.5 177.0, 210 177.0 L 210 203.0 C 152.5 203.0, 152.5 133.0, 95 133.0 Z"/>
<text fill="#000000" x="152.5" y="155.0" text-anchor="middle" font-family="Arial, Helvetica, sans-serif" font-size="12.0">50</text>
<path fill="#A5A5A5" stroke="none" opacity="0.4" d="M 250 104.5 C 305.0 104.5, 305.0 104.5, 360 104.5 L 360 135.5 C 305.0 135.5, 305.0 135.5, 250 135.5 Z"/>
<text fill="#000000" x="305.0" y="120.0" text-anchor="middle" font-family="Arial, Helvetica, sans-serif" font-size="12.0">60</text>
<path fill="#FFC000" stroke="none" opacity="0.4" d="M 250 109.5 C 305.0 109.5, 305.0 179.5, 360 179.5 L 360 200.5 C 305.0 200.5, 305.0 130.5, 250 130.5 Z"/>
<text fill="#000000" x="305.0" y="155.0" text-anchor="middle" font-family="Arial, Helvetica, sans-serif" font-size="12.0">40</text>
<path fill="#5B9BD5" stroke="none" opacity="0.4" d="M 240 180.5 C 300.0 180.5, 300.0 250.5, 360 250.5 L 360 269.5 C 300.0 269.5, 300.0 199.5, 240 199.5 Z"/>
<text fill="#000000" x="300.0" y="225.0" text-anchor="middle" font-family="Arial, Helvetica, sans-serif" font-size="12.0">35</text>
<path fill="#70AD47" stroke="none" opacity="0.4" d="M 240 185.5 C 300.0 185.5, 300.0 325.5, 360 325.5 L 360 334.5 C 300.0 334.5, 300.0 194.5, 240 194.5 Z"/>
<text fill="#000000" x="300.0" y="260.0" text-anchor="middle" font-family="Arial, Helvetica, sans-serif" font-size="12.0">15</text>
<rect fill="#ffffff" stroke="#000000" stroke-width="2" x="60.0" y="100.0" width="35.0" height="40.0" rx="3.0" ry="3.0"/>
<text fill="#FFFFFF" x="77.0" y="125.0" text-anchor="middle" font-family="Arial, Helvetica, sans-serif" font-size="12.0" font-weight="bold">Engineering</text>
<rect fill="#ffffff" stroke="#000000" stroke-width="2" x="210.0" y="100.0" width="40.0" height="40.0" rx="3.0" ry="3.0"/>
<text fill="#FFFFFF" x="230.0" y="125.0" text-anchor="middle" font-family="Arial, Helvetica, sans-serif" font-size="12.0" font-weight="bold">Development</text>
<rect fill="#ffffff" stroke="#000000" stroke-width="2" x="210.0" y="170.0" width="30.0" height="40.0" rx="3.0" ry="3.0"/>
<text fill="#FFFFFF" x="225.0" y="195.0" text-anchor="middle" font-family="Arial, Helvetica, sans-serif" font-size="12.0" font-weight="bold">Testing</text>
<rect fill="#ffffff" stroke="#000000" stroke-width="2" x="360.0" y="100.0" width="26.0" height="40.0" rx="3.0" ry="3.0"/>
<text fill="#FFFFFF" x="373.0" y="125.0" text-anchor="middle" font-family="Arial, Helvetica, sans-serif" font-size="12.0" font-weight="bold">Frontend</text>
<rect fill="#ffffff" stroke="#000000" stroke-width="2" x="360.0" y="170.0" width="24.0" height="40.0" rx="3.0" ry="3.0"/>
<text fill="#FFFFFF" x="372.0" y="195.0" text-anchor="middle" font-family="Arial, Helvetica, sans-serif" font-size="12.0" font-weight="bold">Backend</text>
<rect fill="#ffffff" stroke="#000000" stroke-width="2" x="360.0" y="240.0" width="24.0" height="40.0" rx="3.0" ry="3.0"/>
<text fill="#FFFFFF" x="372.0" y="265.0" text-anchor="middle" font-family="Arial, Helvetica, sans-serif" font-size="12.0" font-weight="bold">QA</text>
<rect fill="#ffffff" stroke="#000000" stroke-width="2" x="360.0" y="310.0" width="22.0" height="40.0" rx="3.0" ry="3.0"/>
<text fill="#FFFFFF" x="371.0" y="335.0" text-anchor="middle" font-family="Arial, Helvetica, sans-serif" font-size="12.0" font-weight="bold">UAT</text>
</svg>