<svg
 width="494.0"
 height="180.0"
 viewBox="0 0 494.0 180"
 version="1.2"
 xmlns="http://www.w3.org/2000/svg"
>
<g id="connection-Frontend-Backend">
  <path fill="none" stroke="#000000" stroke-width="2.0" d="M 89.0 80 L 243.5 20"/>
  <polygon fill="#000000" points="243.5,20 237.23718018105308,27.795966130981185 233.61708537405374,18.47422200295791"/>
</g>
<g id="connection-Backend-Database">
  <path fill="none" stroke="#000000" stroke-width="2.0" d="M 243.5 80 L 384.0 20"/>
  <polygon fill="#000000" points="384.0,20 377.99924907456574,27.99943675085313 374.0719090950772,18.802915632217506"/>
</g>
<g id="connection-Backend-Cache">
  <path fill="none" stroke="#000000" stroke-width="2.0" d="M 243.5 80 L 243.5 100"/>
  <polygon fill="#000000" points="243.5,100 238.5,91.33974596215562 248.5,91.33974596215562"/>
</g>
<g id="connection-Backend-Queue">
  <path fill="none" stroke="#000000" stroke-width="2.0" d="M 243.5 80 L 401.5 100"/>
  <polygon fill="#000000" points="401.5,100 392.2804041676987,103.87286104695387 393.5362060318601,93.95202632007889"/>
</g>
<g id="block-Frontend">
  <rect fill="#ffffff" stroke="#000000" stroke-width="2.0" x="20.0" y="20.0" width="138.0" height="60.0"/>
  <text fill="#000000" x="89.0" y="50.0" text-anchor="middle" font-family="Arial, Helvetica, sans-serif" font-size="14.0" dominant-baseline="middle">"Frontend App"</text>
</g>
<g id="block-Backend">
  <rect fill="#ffffff" stroke="#000000" stroke-width="2.0" x="178.0" y="20.0" width="131.0" height="60.0"/>
  <text fill="#000000" x="243.5" y="50.0" text-anchor="middle" font-family="Arial, Helvetica, sans-serif" font-size="14.0" dominant-baseline="middle">"Backend API"</text>
</g>
<g id="block-Database">
  <rect fill="#ffffff" stroke="#000000" stroke-width="2.0" x="329.0" y="20.0" width="110.0" height="60.0"/>
  <text fill="#000000" x="384.0" y="50.0" text-anchor="middle" font-family="Arial, Helvetica, sans-serif" font-size="14.0" dominant-baseline="middle">"Database"</text>
</g>
<g id="block-Cache">
  <rect fill="#ffffff" stroke="#000000" stroke-width="2.0" x="178.0" y="100.0" width="131.0" height="60.0"/>
  <text fill="#000000" x="243.5" y="130.0" text-anchor="middle" font-family="Arial, Helvetica, sans-serif" font-size="14.0" dominant-baseline="middle">"Redis Cache"</text>
</g>
<g id="block-Queue">
  <rect fill="#ffffff" stroke="#000000" stroke-width="2.0" x="329.0" y="100.0" width="145.0" height="60.0"/>
  <text fill="#000000" x="401.5" y="130.0" text-anchor="middle" font-family="Arial, Helvetica, sans-serif" font-size="14.0" dominant-baseline="middle">"Message Queue"</text>
</g>
</svg>