<svg
 width="700.0"
 height="700.0"
 viewBox="0 0 700 700"
 version="1.2"
 baseProfile="tiny"
 xmlns="http://www.w3.org/2000/svg"
>
<circle class="radarGraticule" fill="none" stroke="#e5e7eb" stroke-width="1" cx="350.0" cy="350.0" r="60.0"/>
<circle class="radarGraticule" fill="none" stroke="#e5e7eb" stroke-width="1" cx="350.0" cy="350.0" r="120.0"/>
<circle class="radarGraticule" fill="none" stroke="#e5e7eb" stroke-width="1" cx="350.0" cy="350.0" r="180.0"/>
<circle class="radarGraticule" fill="none" stroke="#e5e7eb" stroke-width="1" cx="350.0" cy="350.0" r="240.0"/>
<circle class="radarGraticule" fill="none" stroke="#e5e7eb" stroke-width="1" cx="350.0" cy="350.0" r="300.0"/>
<line class="radarAxisLine" stroke="#9ca3af" stroke-width="1" x1="350.0" y1="350.0" x2="350.0" y2="50.0"/>
<text class="radarAxisLabel" fill="#000000" x="350.0" y="39.9" text-anchor="middle" font-family="Arial, Helvetica, sans-serif" font-size="14">A</text>
<line class="radarAxisLine" stroke="#9ca3af" stroke-width="1" x1="350.0" y1="350.0" x2="609.8076211353316" y2="500.0"/>
<text class="radarAxisLabel" fill="#000000" x="622.7980021920982" y="512.4" text-anchor="middle" font-family="Arial, Helvetica, sans-serif" font-size="14">B</text>
<line class="radarAxisLine" stroke="#9ca3af" stroke-width="1" x1="350.0" y1="350.0" x2="90.1923788646684" y2="500.0"/>
<text class="radarAxisLabel" fill="#000000" x="77.20199780790182" y="512.4" text-anchor="middle" font-family="Arial, Helvetica, sans-serif" font-size="14">C</text>
<path class="radarCurve-0" fill="#2563eb" fill-opacity="0.3" stroke="#2563eb" stroke-width="2" d="M350.0,250.0 C423.6121593216773,241.5 567.3723763498942,407.5 523.2050807568878,450.0 C479.03778516388144,492.5 119.63724259333932,534.0 90.1923788646684,500.0 C60.74751513599747,466.0 276.3878406783227,258.5 350.0,250.0 Z"/>
<circle fill="#2563eb" stroke="#ffffff" stroke-width="1" cx="350.0" cy="250.0" r="3.0"/>
<circle fill="#2563eb" stroke="#ffffff" stroke-width="1" cx="523.2050807568878" cy="450.0" r="3.0"/>
<circle fill="#2563eb" stroke="#ffffff" stroke-width="1" cx="90.1923788646684" cy="500.0" r="3.0"/>
<circle fill="#2563eb" stroke="none" cx="618.5" cy="93.5" r="6.0"/>
<text class="radarLegendText" fill="#000000" x="628.5" y="97.1" text-anchor="start" font-family="Arial, Helvetica, sans-serif" font-size="12">mycurve</text>
</svg>