<svg
 width="560.0"
 height="560.0"
 viewBox="0 0 560.0 560.0"
 version="1.2"
 xmlns="http://www.w3.org/2000/svg"
>
<circle fill="none" stroke="#e5e7eb" stroke-width="1" cx="280.0" cy="280.0" r="40.0"/>
<circle fill="none" stroke="#e5e7eb" stroke-width="1" cx="280.0" cy="280.0" r="80.0"/>
<circle fill="none" stroke="#e5e7eb" stroke-width="1" cx="280.0" cy="280.0" r="120.0"/>
<circle fill="none" stroke="#e5e7eb" stroke-width="1" cx="280.0" cy="280.0" r="160.0"/>
<circle fill="none" stroke="#e5e7eb" stroke-width="1" cx="280.0" cy="280.0" r="200.0"/>
<line stroke="#9ca3af" stroke-width="1" x1="280.0" y1="280.0" x2="280.0" y2="80.0"/>
<line stroke="#9ca3af" stroke-width="1" x1="280.0" y1="280.0" x2="453.20508075688775" y2="180.0"/>
<line stroke="#9ca3af" stroke-width="1" x1="280.0" y1="280.0" x2="453.20508075688775" y2="380.0"/>
<line stroke="#9ca3af" stroke-width="1" x1="280.0" y1="280.0" x2="280.0" y2="480.0"/>
<line stroke="#9ca3af" stroke-width="1" x1="280.0" y1="280.0" x2="106.79491924311225" y2="380.0"/>
<line stroke="#9ca3af" stroke-width="1" x1="280.0" y1="280.0" x2="106.79491924311228" y2="179.99999999999997"/>
<polygon fill="#2563eb" fill-opacity="0.3" stroke="#2563eb" stroke-width="2" points="280.0,180.0 424.3375672974065,196.66666666666669 308.8675134594813,296.6666666666667 280.0,413.3333333333333 222.26497308103743,313.3333333333333 106.79491924311228,179.99999999999997"/>
<circle fill="#2563eb" stroke="#ffffff" stroke-width="1" cx="280.0" cy="180.0" r="3.0"/>
<circle fill="#2563eb" stroke="#ffffff" stroke-width="1" cx="424.3375672974065" cy="196.66666666666669" r="3.0"/>
<circle fill="#2563eb" stroke="#ffffff" stroke-width="1" cx="308.8675134594813" cy="296.6666666666667" r="3.0"/>
<circle fill="#2563eb" stroke="#ffffff" stroke-width="1" cx="280.0" cy="413.3333333333333" r="3.0"/>
<circle fill="#2563eb" stroke="#ffffff" stroke-width="1" cx="222.26497308103743" cy="313.3333333333333" r="3.0"/>
<circle fill="#2563eb" stroke="#ffffff" stroke-width="1" cx="106.79491924311228" cy="179.99999999999997" r="3.0"/>
<polygon fill="#7c3aed" fill-opacity="0.3" stroke="#7c3aed" stroke-width="2" points="280.0,280.0 337.7350269189626,246.66666666666669 395.47005383792515,346.66666666666663 280.0,380.0 135.66243270259352,363.3333333333333 251.13248654051873,263.3333333333333"/>
<circle fill="#7c3aed" stroke="#ffffff" stroke-width="1" cx="280.0" cy="280.0" r="3.0"/>
<circle fill="#7c3aed" stroke="#ffffff" stroke-width="1" cx="337.7350269189626" cy="246.66666666666669" r="3.0"/>
<circle fill="#7c3aed" stroke="#ffffff" stroke-width="1" cx="395.47005383792515" cy="346.66666666666663" r="3.0"/>
<circle fill="#7c3aed" stroke="#ffffff" stroke-width="1" cx="280.0" cy="380.0" r="3.0"/>
<circle fill="#7c3aed" stroke="#ffffff" stroke-width="1" cx="135.66243270259352" cy="363.3333333333333" r="3.0"/>
<circle fill="#7c3aed" stroke="#ffffff" stroke-width="1" cx="251.13248654051873" cy="263.3333333333333" r="3.0"/>
<text fill="#000000" x="280.0" y="50.0" text-anchor="end" font-family="Arial, Helvetica, sans-serif" font-size="14.0" font-weight="bold" dominant-baseline="middle">A</text>
<text fill="#000000" x="479.1858428704209" y="165.0" text-anchor="middle" font-family="Arial, Helvetica, sans-serif" font-size="14.0" font-weight="bold" dominant-baseline="auto">B</text>
<text fill="#000000" x="479.1858428704209" y="395.0" text-anchor="middle" font-family="Arial, Helvetica, sans-serif" font-size="14.0" font-weight="bold" dominant-baseline="auto">C</text>
<text fill="#000000" x="280.0" y="510.0" text-anchor="start" font-family="Arial, Helvetica, sans-serif" font-size="14.0" font-weight="bold" dominant-baseline="middle">D</text>
<text fill="#000000" x="80.81415712957909" y="395.0" text-anchor="middle" font-family="Arial, Helvetica, sans-serif" font-size="14.0" font-weight="bold" dominant-baseline="hanging">E</text>
<text fill="#000000" x="80.81415712957912" y="164.99999999999997" text-anchor="middle" font-family="Arial, Helvetica, sans-serif" font-size="14.0" font-weight="bold" dominant-baseline="hanging">F</text>
<circle fill="#2563eb" stroke="none" cx="20.0" cy="520.0" r="5.0"/>
<text fill="#000000" x="35.0" y="524.0" text-anchor="start" font-family="Arial, Helvetica, sans-serif" font-size="12.0">TeamA</text>
<circle fill="#7c3aed" stroke="none" cx="20.0" cy="540.0" r="5.0"/>
<text fill="#000000" x="35.0" y="544.0" text-anchor="start" font-family="Arial, Helvetica, sans-serif" font-size="12.0">TeamB</text>
</svg>