<svg
 width="712.0"
 height="364.0"
 viewBox="0 0 712.0 364.0"
 version="1.2"
 baseProfile="tiny"
 xmlns="http://www.w3.org/2000/svg"
 overflow="hidden"
>
<g id="edge-Start_to_Process">
  <path fill="none" stroke="#000000" stroke-width="2.0" d="M 115.0 67.0 L 300.0 67.0"/>
  <polygon fill="#000000" stroke="#000000" points="300.0,67.0 292.0,63.0 292.0,71.0"/>
</g>
<g id="edge-Process_to_Decision">
  <path fill="none" stroke="#000000" stroke-width="2.0" d="M 414.0 69.4 L 552.5 75.4"/>
  <polygon fill="#000000" stroke="#000000" points="552.5,75.3 544.7,71.0 544.3,79.0"/>
</g>
<g id="edge-Decision_to_Success">
  <path fill="none" stroke="#000000" stroke-width="2.0" d="M 565.0 86.9 L 129.0 252.0"/>
  <polygon fill="#000000" stroke="#000000" points="129.0,252.0 137.9,252.9 135.1,245.5"/>
  <text fill="#000000" x="347.0" y="164.45" text-anchor="middle" font-family="Arial, Helvetica, sans-serif" font-size="12.0">|Yes|</text>
</g>
<g id="edge-Decision_to_Error">
  <path fill="none" stroke="#000000" stroke-width="2.0" d="M 571.6 91.2 L 355.6 250.0"/>
  <polygon fill="#000000" stroke="#000000" points="355.6,250.0 364.4,248.5 359.7,242.0"/>
  <text fill="#000000" x="463.6" y="165.6" text-anchor="middle" font-family="Arial, Helvetica, sans-serif" font-size="12.0">|No|</text>
</g>
<g id="edge-Success_to_End">
  <path fill="none" stroke="#000000" stroke-width="2.0" d="M 129.0 267.0 L 550.0 267.0"/>
  <polygon fill="#000000" stroke="#000000" points="550.0,267.0 542.0,263.0 542.0,271.0"/>
</g>
<g id="edge-Error_to_End">
  <path fill="none" stroke="#000000" stroke-width="2.0" d="M 365.0 267.0 L 550.0 267.0"/>
  <polygon fill="#000000" stroke="#000000" points="550.0,267.0 542.0,263.0 542.0,271.0"/>
</g>
<g id="node-Start">
  <rect fill="#ffffff" stroke="#000000" stroke-width="2.0" x="50.0" y="50.0" width="65.0" height="34.0" rx="17.0" ry="17.0"/>
  <text fill="#000000" x="82.5" y="71.9" text-anchor="middle" font-family="Arial, Helvetica, sans-serif" font-size="14.0">Start</text>
</g>
<g id="node-Process">
  <rect fill="#ffffff" stroke="#000000" stroke-width="2.0" x="300.0" y="50.0" width="114.0" height="34.0"/>
  <text fill="#000000" x="357.0" y="71.9" text-anchor="middle" font-family="Arial, Helvetica, sans-serif" font-size="14.0">Process Data</text>
</g>
<g id="node-Decision">
  <polygon fill="#ffffff" stroke="#000000" stroke-width="2.0" points="591.0,50 632.0,77.0 591.0,104.0 550,77.0"/>
  <text fill="#000000" x="591.0" y="81.9" text-anchor="middle" font-family="Arial, Helvetica, sans-serif" font-size="14.0">Valid?</text>
</g>
<g id="node-Success">
  <rect fill="#ffffff" stroke="#000000" stroke-width="2.0" x="50.0" y="250.0" width="79.0" height="34.0"/>
  <text fill="#000000" x="89.5" y="271.9" text-anchor="middle" font-family="Arial, Helvetica, sans-serif" font-size="14.0">Success</text>
</g>
<g id="node-Error">
  <rect fill="#ffffff" stroke="#000000" stroke-width="2.0" x="300.0" y="250.0" width="65.0" height="34.0"/>
  <text fill="#000000" x="332.5" y="271.9" text-anchor="middle" font-family="Arial, Helvetica, sans-serif" font-size="14.0">Error</text>
</g>
<g id="node-End">
  <rect fill="#ffffff" stroke="#000000" stroke-width="2.0" x="550.0" y="250.0" width="51.0" height="34.0" rx="17.0" ry="17.0"/>
  <text fill="#000000" x="575.5" y="271.9" text-anchor="middle" font-family="Arial, Helvetica, sans-serif" font-size="14.0">End</text>
</g>
</svg>