<svg
 width="708.906"
 height="364.0"
 viewBox="0 0 708.906 364.0"
 version="1.2"
 baseProfile="tiny"
 xmlns="http://www.w3.org/2000/svg"
 overflow="hidden"
>
<g id="edge-Start_to_Process">
  <path fill="none" stroke="#000000" stroke-width="2.0" d="M 109.6 67.0 L 300.0 67.0"/>
  <polygon fill="#000000" stroke="#000000" points="300.0,67.0 292.0,63.0 292.0,71.0"/>
</g>
<g id="edge-Process_to_Decision">
  <path fill="none" stroke="#000000" stroke-width="2.0" d="M 414.0 69.5 L 552.3 75.4"/>
  <polygon fill="#000000" stroke="#000000" points="552.3,75.4 544.5,71.1 544.2,79.1"/>
</g>
<g id="edge-Decision_to_Success">
  <path fill="none" stroke="#000000" stroke-width="2.0" d="M 564.1 86.7 L 132.9 251.2"/>
  <polygon fill="#000000" stroke="#000000" points="132.9,251.2 141.8,252.1 139.0,244.6"/>
  <text fill="#000000" x="348.5" y="163.95" text-anchor="middle" font-family="Arial, Helvetica, sans-serif" font-size="12.0">|Yes|</text>
</g>
<g id="edge-Decision_to_Error">
  <path fill="none" stroke="#000000" stroke-width="2.0" d="M 570.4 91.0 L 353.7 250.0"/>
  <polygon fill="#000000" stroke="#000000" points="353.7,250.0 362.5,248.5 357.8,242.0"/>
  <text fill="#000000" x="462.04999999999995" y="165.5" text-anchor="middle" font-family="Arial, Helvetica, sans-serif" font-size="12.0">|No|</text>
</g>
<g id="edge-Success_to_End">
  <path fill="none" stroke="#000000" stroke-width="2.0" d="M 132.9 267.0 L 550.0 267.0"/>
  <polygon fill="#000000" stroke="#000000" points="550.0,267.0 542.0,263.0 542.0,271.0"/>
</g>
<g id="edge-Error_to_End">
  <path fill="none" stroke="#000000" stroke-width="2.0" d="M 361.1 267.0 L 550.0 267.0"/>
  <polygon fill="#000000" stroke="#000000" points="550.0,267.0 542.0,263.0 542.0,271.0"/>
</g>
<g id="node-Start">
  <rect fill="#ffffff" stroke="#000000" stroke-width="2.0" x="50.0" y="50.0" width="59.568" height="34.0" rx="17.0" ry="17.0"/>
  <text fill="#000000" x="79.78399999999999" y="71.9" text-anchor="middle" font-family="Arial, Helvetica, sans-serif" font-size="14.0">Start</text>
</g>
<g id="node-Process">
  <rect fill="#ffffff" stroke="#000000" stroke-width="2.0" x="300.0" y="50.0" width="114.028" height="34.0"/>
  <text fill="#000000" x="357.014" y="71.9" text-anchor="middle" font-family="Arial, Helvetica, sans-serif" font-size="14.0">Process Data</text>
</g>
<g id="node-Decision">
  <polygon fill="#ffffff" stroke="#000000" stroke-width="2.0" points="589.453,50 628.906,77.0 589.453,104.0 550,77.0"/>
  <text fill="#000000" x="589.453" y="81.9" text-anchor="middle" font-family="Arial, Helvetica, sans-serif" font-size="14.0">Valid?</text>
</g>
<g id="node-Success">
  <rect fill="#ffffff" stroke="#000000" stroke-width="2.0" x="50.0" y="250.0" width="82.906" height="34.0"/>
  <text fill="#000000" x="91.453" y="271.9" text-anchor="middle" font-family="Arial, Helvetica, sans-serif" font-size="14.0">Success</text>
</g>
<g id="node-Error">
  <rect fill="#ffffff" stroke="#000000" stroke-width="2.0" x="300.0" y="250.0" width="61.108000000000004" height="34.0"/>
  <text fill="#000000" x="330.554" y="271.9" text-anchor="middle" font-family="Arial, Helvetica, sans-serif" font-size="14.0">Error</text>
</g>
<g id="node-End">
  <rect fill="#ffffff" stroke="#000000" stroke-width="2.0" x="550.0" y="250.0" width="54.906" height="34.0" rx="17.0" ry="17.0"/>
  <text fill="#000000" x="577.453" y="271.9" text-anchor="middle" font-family="Arial, Helvetica, sans-serif" font-size="14.0">End</text>
</g>
</svg>