<svg
 width="3500.0"
 height="565.0"
 viewBox="0 -25 3500 540"
 version="1.2"
 baseProfile="tiny"
 xmlns="http://www.w3.org/2000/svg"
>
<circle class="actor-0" fill="#8FBC8F" stroke="#000" cx="20.0" cy="60.0" r="7.0"/>
<text fill="#000000" x="50.0" y="67.0" font-family="Arial, Helvetica, sans-serif" font-size="16">Agent</text>
<circle class="actor-1" fill="#7CFC00" stroke="#000" cx="20.0" cy="80.0" r="7.0"/>
<text fill="#000000" x="50.0" y="87.0" font-family="Arial, Helvetica, sans-serif" font-size="16">Customer</text>
<circle class="actor-2" fill="#00FFFF" stroke="#000" cx="20.0" cy="100.0" r="7.0"/>
<text fill="#000000" x="50.0" y="107.0" font-family="Arial, Helvetica, sans-serif" font-size="16">System</text>
<g>
  <rect class="journey-section section-type-0" fill="#191970" stroke="#666" x="150.0" y="50.0" width="550.0" height="50.0" rx="3.0" ry="3.0"/>
  <text class="journey-section section-type-0" fill="#fff" x="425.0" y="79.9" text-anchor="middle" font-family="&quot;Open Sans&quot;, sans-serif" font-size="14">Discovery</text>
</g>
<g>
  <rect class="journey-section section-type-1" fill="#8B008B" stroke="#666" x="750.0" y="50.0" width="550.0" height="50.0" rx="3.0" ry="3.0"/>
  <text class="journey-section section-type-1" fill="#fff" x="1025.0" y="79.9" text-anchor="middle" font-family="&quot;Open Sans&quot;, sans-serif" font-size="14">Initial Contact</text>
</g>
<g>
  <rect class="journey-section section-type-2" fill="#4B0082" stroke="#666" x="1350.0" y="50.0" width="750.0" height="50.0" rx="3.0" ry="3.0"/>
  <text class="journey-section section-type-2" fill="#fff" x="1725.0" y="79.9" text-anchor="middle" font-family="&quot;Open Sans&quot;, sans-serif" font-size="14">Diagnosis</text>
</g>
<g>
  <rect class="journey-section section-type-3" fill="#2F4F4F" stroke="#666" x="2150.0" y="50.0" width="550.0" height="50.0" rx="3.0" ry="3.0"/>
  <text class="journey-section section-type-3" fill="#fff" x="2425.0" y="79.9" text-anchor="middle" font-family="&quot;Open Sans&quot;, sans-serif" font-size="14">Resolution</text>
</g>
<g>
  <rect class="journey-section section-type-4" fill="#800000" stroke="#666" x="2750.0" y="50.0" width="550.0" height="50.0" rx="3.0" ry="3.0"/>
  <text class="journey-section section-type-4" fill="#fff" x="3025.0" y="79.9" text-anchor="middle" font-family="&quot;Open Sans&quot;, sans-serif" font-size="14">Follow-up</text>
</g>
<g id="task-task_0">
  <line class="task-line" stroke="#666" stroke-width="1px" x1="225.0" y1="110.0" x2="225.0" y2="450.0" stroke-dasharray="4 2"/>
  <circle class="face" fill="#FFF8DC" stroke="#999" stroke-width="2" cx="225.0" cy="360.0" r="15.0"/>
  <g>
    <circle fill="#666" stroke="#666" stroke-width="2" cx="220.0" cy="355.0" r="1.5"/>
    <circle fill="#666" stroke="#666" stroke-width="2" cx="230.0" cy="355.0" r="1.5"/>
    <line class="mouth" stroke="#666" stroke-width="1px" x1="220.0" y1="367.0" x2="230.0" y2="367.0"/>
  </g>
  <rect class="task task-type-0" fill="#191970" stroke="#666" x="150.0" y="110.0" width="150.0" height="50.0" rx="3.0" ry="3.0"/>
  <circle class="actor-1" fill="#7CFC00" stroke="#000" cx="164.0" cy="110.0" r="7.0"/>
  <text class="task" fill="#fff" x="225.0" y="139.9" text-anchor="middle" font-family="&quot;Open Sans&quot;, sans-serif" font-size="14">Visit help center</text>
</g>
<g id="task-task_1">
  <line class="task-line" stroke="#666" stroke-width="1px" x1="425.0" y1="110.0" x2="425.0" y2="450.0" stroke-dasharray="4 2"/>
  <circle class="face" fill="#FFF8DC" stroke="#999" stroke-width="2" cx="425.0" cy="390.0" r="15.0"/>
  <g>
    <circle fill="#666" stroke="#666" stroke-width="2" cx="420.0" cy="385.0" r="1.5"/>
    <circle fill="#666" stroke="#666" stroke-width="2" cx="430.0" cy="385.0" r="1.5"/>
    <path class="mouth" transform="translate(425.0,397.0)" fill="#000" stroke="#666" d="M-7.5,0A7.5,7.5,0,1,1,7.5,0L6.818,0A6.818,6.818,0,1,0,-6.818,0Z"/>
  </g>
  <rect class="task task-type-0" fill="#191970" stroke="#666" x="350.0" y="110.0" width="150.0" height="50.0" rx="3.0" ry="3.0"/>
  <circle class="actor-1" fill="#7CFC00" stroke="#000" cx="364.0" cy="110.0" r="7.0"/>
  <text class="task" fill="#fff" x="425.0" y="139.9" text-anchor="middle" font-family="&quot;Open Sans&quot;, sans-serif" font-size="14">Search for solution</text>
</g>
<g id="task-task_2">
  <line class="task-line" stroke="#666" stroke-width="1px" x1="625.0" y1="110.0" x2="625.0" y2="450.0" stroke-dasharray="4 2"/>
  <circle class="face" fill="#FFF8DC" stroke="#999" stroke-width="2" cx="625.0" cy="330.0" r="15.0"/>
  <g>
    <circle fill="#666" stroke="#666" stroke-width="2" cx="620.0" cy="325.0" r="1.5"/>
    <circle fill="#666" stroke="#666" stroke-width="2" cx="630.0" cy="325.0" r="1.5"/>
    <path class="mouth" transform="translate(625.0,332.0)" fill="#000" stroke="#666" d="M7.5,0A7.5,7.5,0,1,1,-7.5,0L-6.818,0A6.818,6.818,0,1,0,6.818,0Z"/>
  </g>
  <rect class="task task-type-0" fill="#191970" stroke="#666" x="550.0" y="110.0" width="150.0" height="50.0" rx="3.0" ry="3.0"/>
  <circle class="actor-1" fill="#7CFC00" stroke="#000" cx="564.0" cy="110.0" r="7.0"/>
  <text class="task" fill="#fff" x="625.0" y="139.9" text-anchor="middle" font-family="&quot;Open Sans&quot;, sans-serif" font-size="14">Click support chat</text>
</g>
<g id="task-task_3">
  <line class="task-line" stroke="#666" stroke-width="1px" x1="825.0" y1="110.0" x2="825.0" y2="450.0" stroke-dasharray="4 2"/>
  <circle class="face" fill="#FFF8DC" stroke="#999" stroke-width="2" cx="825.0" cy="300.0" r="15.0"/>
  <g>
    <circle fill="#666" stroke="#666" stroke-width="2" cx="820.0" cy="295.0" r="1.5"/>
    <circle fill="#666" stroke="#666" stroke-width="2" cx="830.0" cy="295.0" r="1.5"/>
    <path class="mouth" transform="translate(825.0,302.0)" fill="#000" stroke="#666" d="M7.5,0A7.5,7.5,0,1,1,-7.5,0L-6.818,0A6.818,6.818,0,1,0,6.818,0Z"/>
  </g>
  <rect class="task task-type-1" fill="#8B008B" stroke="#666" x="750.0" y="110.0" width="150.0" height="50.0" rx="3.0" ry="3.0"/>
  <circle class="actor-1" fill="#7CFC00" stroke="#000" cx="764.0" cy="110.0" r="7.0"/>
  <circle class="actor-0" fill="#8FBC8F" stroke="#000" cx="774.0" cy="110.0" r="7.0"/>
  <text class="task" fill="#fff" x="825.0" y="139.9" text-anchor="middle" font-family="&quot;Open Sans&quot;, sans-serif" font-size="14">Greet customer</text>
</g>
<g id="task-task_4">
  <line class="task-line" stroke="#666" stroke-width="1px" x1="1025.0" y1="110.0" x2="1025.0" y2="450.0" stroke-dasharray="4 2"/>
  <circle class="face" fill="#FFF8DC" stroke="#999" stroke-width="2" cx="1025.0" cy="360.0" r="15.0"/>
  <g>
    <circle fill="#666" stroke="#666" stroke-width="2" cx="1020.0" cy="355.0" r="1.5"/>
    <circle fill="#666" stroke="#666" stroke-width="2" cx="1030.0" cy="355.0" r="1.5"/>
    <line class="mouth" stroke="#666" stroke-width="1px" x1="1020.0" y1="367.0" x2="1030.0" y2="367.0"/>
  </g>
  <rect class="task task-type-1" fill="#8B008B" stroke="#666" x="950.0" y="110.0" width="150.0" height="50.0" rx="3.0" ry="3.0"/>
  <circle class="actor-1" fill="#7CFC00" stroke="#000" cx="964.0" cy="110.0" r="7.0"/>
  <circle class="actor-0" fill="#8FBC8F" stroke="#000" cx="974.0" cy="110.0" r="7.0"/>
  <text class="task" fill="#fff" x="1025.0" y="139.9" text-anchor="middle" font-family="&quot;Open Sans&quot;, sans-serif" font-size="14">Describe issue</text>
</g>
<g id="task-task_5">
  <line class="task-line" stroke="#666" stroke-width="1px" x1="1225.0" y1="110.0" x2="1225.0" y2="450.0" stroke-dasharray="4 2"/>
  <circle class="face" fill="#FFF8DC" stroke="#999" stroke-width="2" cx="1225.0" cy="330.0" r="15.0"/>
  <g>
    <circle fill="#666" stroke="#666" stroke-width="2" cx="1220.0" cy="325.0" r="1.5"/>
    <circle fill="#666" stroke="#666" stroke-width="2" cx="1230.0" cy="325.0" r="1.5"/>
    <path class="mouth" transform="translate(1225.0,332.0)" fill="#000" stroke="#666" d="M7.5,0A7.5,7.5,0,1,1,-7.5,0L-6.818,0A6.818,6.818,0,1,0,6.818,0Z"/>
  </g>
  <rect class="task task-type-1" fill="#8B008B" stroke="#666" x="1150.0" y="110.0" width="150.0" height="50.0" rx="3.0" ry="3.0"/>
  <circle class="actor-0" fill="#8FBC8F" stroke="#000" cx="1164.0" cy="110.0" r="7.0"/>
  <circle class="actor-2" fill="#00FFFF" stroke="#000" cx="1174.0" cy="110.0" r="7.0"/>
  <text class="task" fill="#fff" x="1225.0" y="139.9" text-anchor="middle" font-family="&quot;Open Sans&quot;, sans-serif" font-size="14">Agent reviews account</text>
</g>
<g id="task-task_6">
  <line class="task-line" stroke="#666" stroke-width="1px" x1="1425.0" y1="110.0" x2="1425.0" y2="450.0" stroke-dasharray="4 2"/>
  <circle class="face" fill="#FFF8DC" stroke="#999" stroke-width="2" cx="1425.0" cy="330.0" r="15.0"/>
  <g>
    <circle fill="#666" stroke="#666" stroke-width="2" cx="1420.0" cy="325.0" r="1.5"/>
    <circle fill="#666" stroke="#666" stroke-width="2" cx="1430.0" cy="325.0" r="1.5"/>
    <path class="mouth" transform="translate(1425.0,332.0)" fill="#000" stroke="#666" d="M7.5,0A7.5,7.5,0,1,1,-7.5,0L-6.818,0A6.818,6.818,0,1,0,6.818,0Z"/>
  </g>
  <rect class="task task-type-2" fill="#4B0082" stroke="#666" x="1350.0" y="110.0" width="150.0" height="50.0" rx="3.0" ry="3.0"/>
  <circle class="actor-1" fill="#7CFC00" stroke="#000" cx="1364.0" cy="110.0" r="7.0"/>
  <circle class="actor-0" fill="#8FBC8F" stroke="#000" cx="1374.0" cy="110.0" r="7.0"/>
  <text class="task" fill="#fff" x="1425.0" y="139.9" text-anchor="middle" font-family="&quot;Open Sans&quot;, sans-serif" font-size="14">Agent asks clarifying questions</text>
</g>
<g id="task-task_7">
  <line class="task-line" stroke="#666" stroke-width="1px" x1="1625.0" y1="110.0" x2="1625.0" y2="450.0" stroke-dasharray="4 2"/>
  <circle class="face" fill="#FFF8DC" stroke="#999" stroke-width="2" cx="1625.0" cy="360.0" r="15.0"/>
  <g>
    <circle fill="#666" stroke="#666" stroke-width="2" cx="1620.0" cy="355.0" r="1.5"/>
    <circle fill="#666" stroke="#666" stroke-width="2" cx="1630.0" cy="355.0" r="1.5"/>
    <line class="mouth" stroke="#666" stroke-width="1px" x1="1620.0" y1="367.0" x2="1630.0" y2="367.0"/>
  </g>
  <rect class="task task-type-2" fill="#4B0082" stroke="#666" x="1550.0" y="110.0" width="150.0" height="50.0" rx="3.0" ry="3.0"/>
  <circle class="actor-1" fill="#7CFC00" stroke="#000" cx="1564.0" cy="110.0" r="7.0"/>
  <circle class="actor-0" fill="#8FBC8F" stroke="#000" cx="1574.0" cy="110.0" r="7.0"/>
  <text class="task" fill="#fff" x="1625.0" y="139.9" text-anchor="middle" font-family="&quot;Open Sans&quot;, sans-serif" font-size="14">Customer provides details</text>
</g>
<g id="task-task_8">
  <line class="task-line" stroke="#666" stroke-width="1px" x1="1825.0" y1="110.0" x2="1825.0" y2="450.0" stroke-dasharray="4 2"/>
  <circle class="face" fill="#FFF8DC" stroke="#999" stroke-width="2" cx="1825.0" cy="390.0" r="15.0"/>
  <g>
    <circle fill="#666" stroke="#666" stroke-width="2" cx="1820.0" cy="385.0" r="1.5"/>
    <circle fill="#666" stroke="#666" stroke-width="2" cx="1830.0" cy="385.0" r="1.5"/>
    <path class="mouth" transform="translate(1825.0,397.0)" fill="#000" stroke="#666" d="M-7.5,0A7.5,7.5,0,1,1,7.5,0L6.818,0A6.818,6.818,0,1,0,-6.818,0Z"/>
  </g>
  <rect class="task task-type-2" fill="#4B0082" stroke="#666" x="1750.0" y="110.0" width="150.0" height="50.0" rx="3.0" ry="3.0"/>
  <circle class="actor-0" fill="#8FBC8F" stroke="#000" cx="1764.0" cy="110.0" r="7.0"/>
  <circle class="actor-2" fill="#00FFFF" stroke="#000" cx="1774.0" cy="110.0" r="7.0"/>
  <text class="task" fill="#fff" x="1825.0" y="139.9" text-anchor="middle" font-family="&quot;Open Sans&quot;, sans-serif" font-size="14">Agent checks logs</text>
</g>
<g id="task-task_9">
  <line class="task-line" stroke="#666" stroke-width="1px" x1="2025.0" y1="110.0" x2="2025.0" y2="450.0" stroke-dasharray="4 2"/>
  <circle class="face" fill="#FFF8DC" stroke="#999" stroke-width="2" cx="2025.0" cy="300.0" r="15.0"/>
  <g>
    <circle fill="#666" stroke="#666" stroke-width="2" cx="2020.0" cy="295.0" r="1.5"/>
    <circle fill="#666" stroke="#666" stroke-width="2" cx="2030.0" cy="295.0" r="1.5"/>
    <path class="mouth" transform="translate(2025.0,302.0)" fill="#000" stroke="#666" d="M7.5,0A7.5,7.5,0,1,1,-7.5,0L-6.818,0A6.818,6.818,0,1,0,6.818,0Z"/>
  </g>
  <rect class="task task-type-2" fill="#4B0082" stroke="#666" x="1950.0" y="110.0" width="150.0" height="50.0" rx="3.0" ry="3.0"/>
  <circle class="actor-0" fill="#8FBC8F" stroke="#000" cx="1964.0" cy="110.0" r="7.0"/>
  <text class="task" fill="#fff" x="2025.0" y="139.9" text-anchor="middle" font-family="&quot;Open Sans&quot;, sans-serif" font-size="14">Agent identifies root cause</text>
</g>
<g id="task-task_10">
  <line class="task-line" stroke="#666" stroke-width="1px" x1="2225.0" y1="110.0" x2="2225.0" y2="450.0" stroke-dasharray="4 2"/>
  <circle class="face" fill="#FFF8DC" stroke="#999" stroke-width="2" cx="2225.0" cy="300.0" r="15.0"/>
  <g>
    <circle fill="#666" stroke="#666" stroke-width="2" cx="2220.0" cy="295.0" r="1.5"/>
    <circle fill="#666" stroke="#666" stroke-width="2" cx="2230.0" cy="295.0" r="1.5"/>
    <path class="mouth" transform="translate(2225.0,302.0)" fill="#000" stroke="#666" d="M7.5,0A7.5,7.5,0,1,1,-7.5,0L-6.818,0A6.818,6.818,0,1,0,6.818,0Z"/>
  </g>
  <rect class="task task-type-3" fill="#2F4F4F" stroke="#666" x="2150.0" y="110.0" width="150.0" height="50.0" rx="3.0" ry="3.0"/>
  <circle class="actor-1" fill="#7CFC00" stroke="#000" cx="2164.0" cy="110.0" r="7.0"/>
  <circle class="actor-0" fill="#8FBC8F" stroke="#000" cx="2174.0" cy="110.0" r="7.0"/>
  <text class="task" fill="#fff" x="2225.0" y="139.9" text-anchor="middle" font-family="&quot;Open Sans&quot;, sans-serif" font-size="14">Agent explains solution</text>
</g>
<g id="task-task_11">
  <line class="task-line" stroke="#666" stroke-width="1px" x1="2425.0" y1="110.0" x2="2425.0" y2="450.0" stroke-dasharray="4 2"/>
  <circle class="face" fill="#FFF8DC" stroke="#999" stroke-width="2" cx="2425.0" cy="330.0" r="15.0"/>
  <g>
    <circle fill="#666" stroke="#666" stroke-width="2" cx="2420.0" cy="325.0" r="1.5"/>
    <circle fill="#666" stroke="#666" stroke-width="2" cx="2430.0" cy="325.0" r="1.5"/>
    <path class="mouth" transform="translate(2425.0,332.0)" fill="#000" stroke="#666" d="M7.5,0A7.5,7.5,0,1,1,-7.5,0L-6.818,0A6.818,6.818,0,1,0,6.818,0Z"/>
  </g>
  <rect class="task task-type-3" fill="#2F4F4F" stroke="#666" x="2350.0" y="110.0" width="150.0" height="50.0" rx="3.0" ry="3.0"/>
  <circle class="actor-1" fill="#7CFC00" stroke="#000" cx="2364.0" cy="110.0" r="7.0"/>
  <text class="task" fill="#fff" x="2425.0" y="139.9" text-anchor="middle" font-family="&quot;Open Sans&quot;, sans-serif" font-size="14">Customer follows steps</text>
</g>
<g id="task-task_12">
  <line class="task-line" stroke="#666" stroke-width="1px" x1="2625.0" y1="110.0" x2="2625.0" y2="450.0" stroke-dasharray="4 2"/>
  <circle class="face" fill="#FFF8DC" stroke="#999" stroke-width="2" cx="2625.0" cy="300.0" r="15.0"/>
  <g>
    <circle fill="#666" stroke="#666" stroke-width="2" cx="2620.0" cy="295.0" r="1.5"/>
    <circle fill="#666" stroke="#666" stroke-width="2" cx="2630.0" cy="295.0" r="1.5"/>
    <path class="mouth" transform="translate(2625.0,302.0)" fill="#000" stroke="#666" d="M7.5,0A7.5,7.5,0,1,1,-7.5,0L-6.818,0A6.818,6.818,0,1,0,6.818,0Z"/>
  </g>
  <rect class="task task-type-3" fill="#2F4F4F" stroke="#666" x="2550.0" y="110.0" width="150.0" height="50.0" rx="3.0" ry="3.0"/>
  <circle class="actor-1" fill="#7CFC00" stroke="#000" cx="2564.0" cy="110.0" r="7.0"/>
  <circle class="actor-0" fill="#8FBC8F" stroke="#000" cx="2574.0" cy="110.0" r="7.0"/>
  <text class="task" fill="#fff" x="2625.0" y="139.9" text-anchor="middle" font-family="&quot;Open Sans&quot;, sans-serif" font-size="14">Issue resolved</text>
</g>
<g id="task-task_13">
  <line class="task-line" stroke="#666" stroke-width="1px" x1="2825.0" y1="110.0" x2="2825.0" y2="450.0" stroke-dasharray="4 2"/>
  <circle class="face" fill="#FFF8DC" stroke="#999" stroke-width="2" cx="2825.0" cy="300.0" r="15.0"/>
  <g>
    <circle fill="#666" stroke="#666" stroke-width="2" cx="2820.0" cy="295.0" r="1.5"/>
    <circle fill="#666" stroke="#666" stroke-width="2" cx="2830.0" cy="295.0" r="1.5"/>
    <path class="mouth" transform="translate(2825.0,302.0)" fill="#000" stroke="#666" d="M7.5,0A7.5,7.5,0,1,1,-7.5,0L-6.818,0A6.818,6.818,0,1,0,6.818,0Z"/>
  </g>
  <rect class="task task-type-4" fill="#800000" stroke="#666" x="2750.0" y="110.0" width="150.0" height="50.0" rx="3.0" ry="3.0"/>
  <circle class="actor-1" fill="#7CFC00" stroke="#000" cx="2764.0" cy="110.0" r="7.0"/>
  <circle class="actor-0" fill="#8FBC8F" stroke="#000" cx="2774.0" cy="110.0" r="7.0"/>
  <text class="task" fill="#fff" x="2825.0" y="139.9" text-anchor="middle" font-family="&quot;Open Sans&quot;, sans-serif" font-size="14">Agent confirms resolution</text>
</g>
<g id="task-task_14">
  <line class="task-line" stroke="#666" stroke-width="1px" x1="3025.0" y1="110.0" x2="3025.0" y2="450.0" stroke-dasharray="4 2"/>
  <circle class="face" fill="#FFF8DC" stroke="#999" stroke-width="2" cx="3025.0" cy="300.0" r="15.0"/>
  <g>
    <circle fill="#666" stroke="#666" stroke-width="2" cx="3020.0" cy="295.0" r="1.5"/>
    <circle fill="#666" stroke="#666" stroke-width="2" cx="3030.0" cy="295.0" r="1.5"/>
    <path class="mouth" transform="translate(3025.0,302.0)" fill="#000" stroke="#666" d="M7.5,0A7.5,7.5,0,1,1,-7.5,0L-6.818,0A6.818,6.818,0,1,0,6.818,0Z"/>
  </g>
  <rect class="task task-type-4" fill="#800000" stroke="#666" x="2950.0" y="110.0" width="150.0" height="50.0" rx="3.0" ry="3.0"/>
  <circle class="actor-1" fill="#7CFC00" stroke="#000" cx="2964.0" cy="110.0" r="7.0"/>
  <text class="task" fill="#fff" x="3025.0" y="139.9" text-anchor="middle" font-family="&quot;Open Sans&quot;, sans-serif" font-size="14">Customer rates experience</text>
</g>
<g id="task-task_15">
  <line class="task-line" stroke="#666" stroke-width="1px" x1="3225.0" y1="110.0" x2="3225.0" y2="450.0" stroke-dasharray="4 2"/>
  <circle class="face" fill="#FFF8DC" stroke="#999" stroke-width="2" cx="3225.0" cy="330.0" r="15.0"/>
  <g>
    <circle fill="#666" stroke="#666" stroke-width="2" cx="3220.0" cy="325.0" r="1.5"/>
    <circle fill="#666" stroke="#666" stroke-width="2" cx="3230.0" cy="325.0" r="1.5"/>
    <path class="mouth" transform="translate(3225.0,332.0)" fill="#000" stroke="#666" d="M7.5,0A7.5,7.5,0,1,1,-7.5,0L-6.818,0A6.818,6.818,0,1,0,6.818,0Z"/>
  </g>
  <rect class="task task-type-4" fill="#800000" stroke="#666" x="3150.0" y="110.0" width="150.0" height="50.0" rx="3.0" ry="3.0"/>
  <circle class="actor-0" fill="#8FBC8F" stroke="#000" cx="3164.0" cy="110.0" r="7.0"/>
  <circle class="actor-2" fill="#00FFFF" stroke="#000" cx="3174.0" cy="110.0" r="7.0"/>
  <text class="task" fill="#fff" x="3225.0" y="139.9" text-anchor="middle" font-family="&quot;Open Sans&quot;, sans-serif" font-size="14">Agent documents case</text>
</g>
<text fill="#000000" x="150.0" y="25.0" font-family="Arial, Helvetica, sans-serif" font-size="32" font-weight="bold">Customer Support Interaction Journey</text>
<line stroke="black" stroke-width="4" x1="150.0" y1="200.0" x2="3346.0" y2="200.0"/>
<path fill="black" d="M 3326,192 V 208 L 3350,200 Z"/>
</svg>