<svg
 width="770.0"
 height="890.0"
 viewBox="0 0 770 890"
 version="1.2"
 xmlns="http://www.w3.org/2000/svg"
>
<text fill="#000000" x="20.0" y="40.0" font-family="Arial, sans-serif" font-size="20" font-weight="bold">E-commerce Purchase Flow</text>
<text fill="#666666" x="20.0" y="76.0" font-family="Arial, sans-serif" font-size="16" font-weight="bold">Browse</text>
<g id="task-task_0">
  <rect fill="#48dbfb" stroke="#333333" stroke-width="2" x="50.0" y="50.0" width="140.0" height="80.0" rx="5.0" ry="5.0"/>
  <text fill="#000000" x="120.0" y="74.0" text-anchor="middle" font-family="Arial, sans-serif" font-size="14" font-weight="bold">View Products</text>
  <text fill="#000000" x="120.0" y="102.0" text-anchor="middle" font-family="Arial, sans-serif" font-size="18" font-weight="bold">5</text>
  <text fill="#333333" x="120.0" y="123.0" text-anchor="middle" font-family="Arial, sans-serif" font-size="11">Customer</text>
</g>
<g id="task-task_1">
  <rect fill="#48dbfb" stroke="#333333" stroke-width="2" x="300.0" y="50.0" width="140.0" height="80.0" rx="5.0" ry="5.0"/>
  <text fill="#000000" x="370.0" y="74.0" text-anchor="middle" font-family="Arial, sans-serif" font-size="14" font-weight="bold">Search Items</text>
  <text fill="#000000" x="370.0" y="102.0" text-anchor="middle" font-family="Arial, sans-serif" font-size="18" font-weight="bold">4</text>
  <text fill="#333333" x="370.0" y="123.0" text-anchor="middle" font-family="Arial, sans-serif" font-size="11">Customer</text>
</g>
<g id="task-task_2">
  <rect fill="#feca57" stroke="#333333" stroke-width="2" x="550.0" y="50.0" width="140.0" height="80.0" rx="5.0" ry="5.0"/>
  <text fill="#000000" x="620.0" y="74.0" text-anchor="middle" font-family="Arial, sans-serif" font-size="14" font-weight="bold">Filter Results</text>
  <text fill="#000000" x="620.0" y="102.0" text-anchor="middle" font-family="Arial, sans-serif" font-size="18" font-weight="bold">3</text>
  <text fill="#333333" x="620.0" y="123.0" text-anchor="middle" font-family="Arial, sans-serif" font-size="11">Customer</text>
</g>
<text fill="#666666" x="20.0" y="122.0" font-family="Arial, sans-serif" font-size="16" font-weight="bold">Purchase</text>
<g id="task-task_3">
  <rect fill="#48dbfb" stroke="#333333" stroke-width="2" x="50.0" y="250.0" width="140.0" height="80.0" rx="5.0" ry="5.0"/>
  <text fill="#000000" x="120.0" y="274.0" text-anchor="middle" font-family="Arial, sans-serif" font-size="14" font-weight="bold">Add to Cart</text>
  <text fill="#000000" x="120.0" y="302.0" text-anchor="middle" font-family="Arial, sans-serif" font-size="18" font-weight="bold">5</text>
  <text fill="#333333" x="120.0" y="323.0" text-anchor="middle" font-family="Arial, sans-serif" font-size="11">Customer</text>
</g>
<g id="task-task_4">
  <rect fill="#feca57" stroke="#333333" stroke-width="2" x="300.0" y="250.0" width="140.0" height="80.0" rx="5.0" ry="5.0"/>
  <text fill="#000000" x="370.0" y="274.0" text-anchor="middle" font-family="Arial, sans-serif" font-size="14" font-weight="bold">Verify Stock</text>
  <text fill="#000000" x="370.0" y="302.0" text-anchor="middle" font-family="Arial, sans-serif" font-size="18" font-weight="bold">3</text>
  <text fill="#333333" x="370.0" y="323.0" text-anchor="middle" font-family="Arial, sans-serif" font-size="11">System</text>
</g>
<g id="task-task_5">
  <rect fill="#48dbfb" stroke="#333333" stroke-width="2" x="550.0" y="250.0" width="140.0" height="80.0" rx="5.0" ry="5.0"/>
  <text fill="#000000" x="620.0" y="274.0" text-anchor="middle" font-family="Arial, sans-serif" font-size="14" font-weight="bold">Apply Discount</text>
  <text fill="#000000" x="620.0" y="302.0" text-anchor="middle" font-family="Arial, sans-serif" font-size="18" font-weight="bold">4</text>
  <text fill="#333333" x="620.0" y="323.0" text-anchor="middle" font-family="Arial, sans-serif" font-size="11">Customer, System</text>
</g>
<text fill="#666666" x="20.0" y="168.0" font-family="Arial, sans-serif" font-size="16" font-weight="bold">Checkout</text>
<g id="task-task_6">
  <rect fill="#48dbfb" stroke="#333333" stroke-width="2" x="50.0" y="450.0" width="140.0" height="80.0" rx="5.0" ry="5.0"/>
  <text fill="#000000" x="120.0" y="474.0" text-anchor="middle" font-family="Arial, sans-serif" font-size="14" font-weight="bold">Enter Payment</text>
  <text fill="#000000" x="120.0" y="502.0" text-anchor="middle" font-family="Arial, sans-serif" font-size="18" font-weight="bold">4</text>
  <text fill="#333333" x="120.0" y="523.0" text-anchor="middle" font-family="Arial, sans-serif" font-size="11">Customer</text>
</g>
<g id="task-task_7">
  <rect fill="#48dbfb" stroke="#333333" stroke-width="2" x="300.0" y="450.0" width="140.0" height="80.0" rx="5.0" ry="5.0"/>
  <text fill="#000000" x="370.0" y="474.0" text-anchor="middle" font-family="Arial, sans-serif" font-size="14" font-weight="bold">Process Payment</text>
  <text fill="#000000" x="370.0" y="502.0" text-anchor="middle" font-family="Arial, sans-serif" font-size="18" font-weight="bold">5</text>
  <text fill="#333333" x="370.0" y="523.0" text-anchor="middle" font-family="Arial, sans-serif" font-size="11">Payment Gateway</text>
</g>
<g id="task-task_8">
  <rect fill="#48dbfb" stroke="#333333" stroke-width="2" x="550.0" y="450.0" width="140.0" height="80.0" rx="5.0" ry="5.0"/>
  <text fill="#000000" x="620.0" y="474.0" text-anchor="middle" font-family="Arial, sans-serif" font-size="14" font-weight="bold">Confirm Order</text>
  <text fill="#000000" x="620.0" y="502.0" text-anchor="middle" font-family="Arial, sans-serif" font-size="18" font-weight="bold">5</text>
  <text fill="#333333" x="620.0" y="523.0" text-anchor="middle" font-family="Arial, sans-serif" font-size="11">Customer, System</text>
</g>
<text fill="#666666" x="20.0" y="214.0" font-family="Arial, sans-serif" font-size="16" font-weight="bold">Fulfillment</text>
<g id="task-task_9">
  <rect fill="#48dbfb" stroke="#333333" stroke-width="2" x="50.0" y="650.0" width="140.0" height="80.0" rx="5.0" ry="5.0"/>
  <text fill="#000000" x="120.0" y="674.0" text-anchor="middle" font-family="Arial, sans-serif" font-size="14" font-weight="bold">Pack Order</text>
  <text fill="#000000" x="120.0" y="702.0" text-anchor="middle" font-family="Arial, sans-serif" font-size="18" font-weight="bold">4</text>
  <text fill="#333333" x="120.0" y="723.0" text-anchor="middle" font-family="Arial, sans-serif" font-size="11">Warehouse</text>
</g>
<g id="task-task_10">
  <rect fill="#48dbfb" stroke="#333333" stroke-width="2" x="300.0" y="650.0" width="140.0" height="80.0" rx="5.0" ry="5.0"/>
  <text fill="#000000" x="370.0" y="674.0" text-anchor="middle" font-family="Arial, sans-serif" font-size="14" font-weight="bold">Ship Order</text>
  <text fill="#000000" x="370.0" y="702.0" text-anchor="middle" font-family="Arial, sans-serif" font-size="18" font-weight="bold">5</text>
  <text fill="#333333" x="370.0" y="723.0" text-anchor="middle" font-family="Arial, sans-serif" font-size="11">Courier</text>
</g>
<g id="task-task_11">
  <rect fill="#48dbfb" stroke="#333333" stroke-width="2" x="550.0" y="650.0" width="140.0" height="80.0" rx="5.0" ry="5.0"/>
  <text fill="#000000" x="620.0" y="674.0" text-anchor="middle" font-family="Arial, sans-serif" font-size="14" font-weight="bold">Track Shipment</text>
  <text fill="#000000" x="620.0" y="702.0" text-anchor="middle" font-family="Arial, sans-serif" font-size="18" font-weight="bold">5</text>
  <text fill="#333333" x="620.0" y="723.0" text-anchor="middle" font-family="Arial, sans-serif" font-size="11">Customer</text>
</g>
<g id="arrow-flow_0">
  <line stroke="#666666" stroke-width="2" x1="190.0" y1="90.0" x2="300.0" y2="90.0"/>
  <path fill="none" stroke="#666666" stroke-width="2" d="M 300,90 L 291.33974596215563,95.0 M 300,90 L 291.33974596215563,85.0"/>
</g>
<g id="arrow-flow_1">
  <line stroke="#666666" stroke-width="2" x1="440.0" y1="90.0" x2="550.0" y2="90.0"/>
  <path fill="none" stroke="#666666" stroke-width="2" d="M 550,90 L 541.3397459621556,95.0 M 550,90 L 541.3397459621556,85.0"/>
</g>
<g id="arrow-flow_2">
  <line stroke="#666666" stroke-width="2" x1="690.0" y1="90.0" x2="50.0" y2="290.0"/>
  <path fill="none" stroke="#666666" stroke-width="2" d="M 50,290 L 56.774664118139754,282.64446289613124 M 50,290 L 59.75741404949922,292.1892626764816"/>
</g>
<g id="arrow-flow_3">
  <line stroke="#666666" stroke-width="2" x1="190.0" y1="290.0" x2="300.0" y2="290.0"/>
  <path fill="none" stroke="#666666" stroke-width="2" d="M 300,290 L 291.33974596215563,295.0 M 300,290 L 291.33974596215563,285.0"/>
</g>
<g id="arrow-flow_4">
  <line stroke="#666666" stroke-width="2" x1="440.0" y1="290.0" x2="550.0" y2="290.0"/>
  <path fill="none" stroke="#666666" stroke-width="2" d="M 550,290 L 541.3397459621556,295.0 M 550,290 L 541.3397459621556,285.0"/>
</g>
<g id="arrow-flow_5">
  <line stroke="#666666" stroke-width="2" x1="690.0" y1="290.0" x2="50.0" y2="490.0"/>
  <path fill="none" stroke="#666666" stroke-width="2" d="M 50,490 L 56.774664118139754,482.64446289613124 M 50,490 L 59.75741404949922,492.1892626764816"/>
</g>
<g id="arrow-flow_6">
  <line stroke="#666666" stroke-width="2" x1="190.0" y1="490.0" x2="300.0" y2="490.0"/>
  <path fill="none" stroke="#666666" stroke-width="2" d="M 300,490 L 291.33974596215563,495.0 M 300,490 L 291.33974596215563,485.0"/>
</g>
<g id="arrow-flow_7">
  <line stroke="#666666" stroke-width="2" x1="440.0" y1="490.0" x2="550.0" y2="490.0"/>
  <path fill="none" stroke="#666666" stroke-width="2" d="M 550,490 L 541.3397459621556,495.0 M 550,490 L 541.3397459621556,485.0"/>
</g>
<g id="arrow-flow_8">
  <line stroke="#666666" stroke-width="2" x1="690.0" y1="490.0" x2="50.0" y2="690.0"/>
  <path fill="none" stroke="#666666" stroke-width="2" d="M 50,690 L 56.774664118139754,682.6444628961312 M 50,690 L 59.75741404949922,692.1892626764816"/>
</g>
<g id="arrow-flow_9">
  <line stroke="#666666" stroke-width="2" x1="190.0" y1="690.0" x2="300.0" y2="690.0"/>
  <path fill="none" stroke="#666666" stroke-width="2" d="M 300,690 L 291.33974596215563,695.0 M 300,690 L 291.33974596215563,685.0"/>
</g>
<g id="arrow-flow_10">
  <line stroke="#666666" stroke-width="2" x1="440.0" y1="690.0" x2="550.0" y2="690.0"/>
  <path fill="none" stroke="#666666" stroke-width="2" d="M 550,690 L 541.3397459621556,695.0 M 550,690 L 541.3397459621556,685.0"/>
</g>
</svg>