<svg
 width="800.0"
 height="500.0"
 viewBox="0 0 800.0 500.0"
 version="1.2"
 xmlns="http://www.w3.org/2000/svg"
>
<line stroke="#e5e7eb" stroke-width="1" x1="100.0" y1="80.0" x2="740.0" y2="80.0" stroke-dasharray="3,3"/>
<line stroke="#e5e7eb" stroke-width="1" x1="100.0" y1="148.0" x2="740.0" y2="148.0" stroke-dasharray="3,3"/>
<line stroke="#e5e7eb" stroke-width="1" x1="100.0" y1="216.0" x2="740.0" y2="216.0" stroke-dasharray="3,3"/>
<line stroke="#e5e7eb" stroke-width="1" x1="100.0" y1="284.0" x2="740.0" y2="284.0" stroke-dasharray="3,3"/>
<line stroke="#e5e7eb" stroke-width="1" x1="100.0" y1="352.0" x2="740.0" y2="352.0" stroke-dasharray="3,3"/>
<line stroke="#000000" stroke-width="2" x1="100.0" y1="420.0" x2="740.0" y2="420.0"/>
<line stroke="#000000" stroke-width="2" x1="100.0" y1="80.0" x2="100.0" y2="420.0"/>
<polyline fill="none" stroke="#2563eb" stroke-width="2"/>
<circle fill="#2563eb" stroke="#ffffff" stroke-width="2" cx="100.0" cy="341.8" r="4.0"/>
<circle fill="#2563eb" stroke="#ffffff" stroke-width="2" cx="420.0" cy="263.6" r="4.0"/>
<circle fill="#2563eb" stroke="#ffffff" stroke-width="2" cx="526.0" cy="158.2" r="4.0"/>
<circle fill="#2563eb" stroke="#ffffff" stroke-width="2" cx="580.0" cy="243.2" r="4.0"/>
<rect fill="#7c3aed" stroke="#7c3aed" stroke-width="1" x="90.0" y="362.2" width="20.0" height="57.80000000000001" fill-opacity="0.8"/>
<rect fill="#7c3aed" stroke="#7c3aed" stroke-width="1" x="410.0" y="311.2" width="20.0" height="108.80000000000001" fill-opacity="0.8"/>
<rect fill="#7c3aed" stroke="#7c3aed" stroke-width="1" x="516.0" y="270.4" width="20.0" height="149.6" fill-opacity="0.8"/>
<rect fill="#7c3aed" stroke="#7c3aed" stroke-width="1" x="570.0" y="321.4" width="20.0" height="98.6" fill-opacity="0.8"/>
<text fill="#000000" x="90.0" y="84.0" text-anchor="end" font-family="Arial, Helvetica, sans-serif" font-size="12.0">100</text>
<text fill="#000000" x="90.0" y="152.0" text-anchor="end" font-family="Arial, Helvetica, sans-serif" font-size="12.0">80</text>
<text fill="#000000" x="90.0" y="220.0" text-anchor="end" font-family="Arial, Helvetica, sans-serif" font-size="12.0">60</text>
<text fill="#000000" x="90.0" y="288.0" text-anchor="end" font-family="Arial, Helvetica, sans-serif" font-size="12.0">40</text>
<text fill="#000000" x="90.0" y="356.0" text-anchor="end" font-family="Arial, Helvetica, sans-serif" font-size="12.0">20</text>
<rect fill="#2563eb" stroke="none" x="650.0" y="52.0" width="15.0" height="15.0"/>
<text fill="#000000" x="670.0" y="64.0" text-anchor="start" font-family="Arial, Helvetica, sans-serif" font-size="12.0">Line</text>
<rect fill="#7c3aed" stroke="none" x="650.0" y="77.0" width="15.0" height="15.0"/>
<text fill="#000000" x="670.0" y="89.0" text-anchor="start" font-family="Arial, Helvetica, sans-serif" font-size="12.0">Bar</text>
</svg>
