<svg
 width="800.0"
 height="500.0"
 viewBox="0 0 800.0 500.0"
 version="1.2"
 xmlns="http://www.w3.org/2000/svg"
>
<text fill="#000000" x="400.0" y="30.0" text-anchor="middle" font-family="Arial, Helvetica, sans-serif" font-size="16.0" font-weight="bold">Monthly Sales Performance</text>
<line stroke="#e5e7eb" stroke-width="1" x1="100.0" y1="80.0" x2="740.0" y2="80.0" stroke-dasharray="3,3"/>
<line stroke="#e5e7eb" stroke-width="1" x1="100.0" y1="148.0" x2="740.0" y2="148.0" stroke-dasharray="3,3"/>
<line stroke="#e5e7eb" stroke-width="1" x1="100.0" y1="216.0" x2="740.0" y2="216.0" stroke-dasharray="3,3"/>
<line stroke="#e5e7eb" stroke-width="1" x1="100.0" y1="284.0" x2="740.0" y2="284.0" stroke-dasharray="3,3"/>
<line stroke="#e5e7eb" stroke-width="1" x1="100.0" y1="352.0" x2="740.0" y2="352.0" stroke-dasharray="3,3"/>
<line stroke="#e5e7eb" stroke-width="1" x1="153.0" y1="80.0" x2="153.0" y2="420.0" stroke-dasharray="3,3"/>
<line stroke="#e5e7eb" stroke-width="1" x1="259.0" y1="80.0" x2="259.0" y2="420.0" stroke-dasharray="3,3"/>
<line stroke="#e5e7eb" stroke-width="1" x1="365.0" y1="80.0" x2="365.0" y2="420.0" stroke-dasharray="3,3"/>
<line stroke="#e5e7eb" stroke-width="1" x1="471.0" y1="80.0" x2="471.0" y2="420.0" stroke-dasharray="3,3"/>
<line stroke="#e5e7eb" stroke-width="1" x1="577.0" y1="80.0" x2="577.0" y2="420.0" stroke-dasharray="3,3"/>
<line stroke="#e5e7eb" stroke-width="1" x1="683.0" y1="80.0" x2="683.0" y2="420.0" stroke-dasharray="3,3"/>
<line stroke="#000000" stroke-width="2" x1="100.0" y1="420.0" x2="740.0" y2="420.0"/>
<line stroke="#000000" stroke-width="2" x1="100.0" y1="80.0" x2="100.0" y2="420.0"/>
<polyline fill="none" stroke="#2563eb" stroke-width="2"/>
<circle fill="#2563eb" stroke="#ffffff" stroke-width="2" cx="153.0" cy="267.0" r="4.0"/>
<circle fill="#2563eb" stroke="#ffffff" stroke-width="2" cx="259.0" cy="243.2" r="4.0"/>
<circle fill="#2563eb" stroke="#ffffff" stroke-width="2" cx="365.0" cy="188.79999999999998" r="4.0"/>
<circle fill="#2563eb" stroke="#ffffff" stroke-width="2" cx="471.0" cy="165.0" r="4.0"/>
<circle fill="#2563eb" stroke="#ffffff" stroke-width="2" cx="577.0" cy="141.2" r="4.0"/>
<circle fill="#2563eb" stroke="#ffffff" stroke-width="2" cx="683.0" cy="114.0" r="4.0"/>
<text fill="#000000" x="153.0" y="440.0" text-anchor="middle" font-family="Arial, Helvetica, sans-serif" font-size="12.0">Jan</text>
<text fill="#000000" x="259.0" y="440.0" text-anchor="middle" font-family="Arial, Helvetica, sans-serif" font-size="12.0">Feb</text>
<text fill="#000000" x="365.0" y="440.0" text-anchor="middle" font-family="Arial, Helvetica, sans-serif" font-size="12.0">Mar</text>
<text fill="#000000" x="471.0" y="440.0" text-anchor="middle" font-family="Arial, Helvetica, sans-serif" font-size="12.0">Apr</text>
<text fill="#000000" x="577.0" y="440.0" text-anchor="middle" font-family="Arial, Helvetica, sans-serif" font-size="12.0">May</text>
<text fill="#000000" x="683.0" y="440.0" text-anchor="middle" font-family="Arial, Helvetica, sans-serif" font-size="12.0">Jun</text>
<text transform="rotate(-90, 20, 250)" fill="#000000" x="20.0" y="250.0" text-anchor="middle" font-family="Arial, Helvetica, sans-serif" font-size="14.0" font-weight="bold">Sales ($1000)</text>
<text fill="#000000" x="90.0" y="84.0" text-anchor="end" font-family="Arial, Helvetica, sans-serif" font-size="12.0">100.0</text>
<text fill="#000000" x="90.0" y="152.0" text-anchor="end" font-family="Arial, Helvetica, sans-serif" font-size="12.0">80.0</text>
<text fill="#000000" x="90.0" y="220.0" text-anchor="end" font-family="Arial, Helvetica, sans-serif" font-size="12.0">60.0</text>
<text fill="#000000" x="90.0" y="288.0" text-anchor="end" font-family="Arial, Helvetica, sans-serif" font-size="12.0">40.0</text>
<text fill="#000000" x="90.0" y="356.0" text-anchor="end" font-family="Arial, Helvetica, sans-serif" font-size="12.0">20.0</text>
<rect fill="#2563eb" stroke="none" x="650.0" y="52.0" width="15.0" height="15.0"/>
<text fill="#000000" x="670.0" y="64.0" text-anchor="start" font-family="Arial, Helvetica, sans-serif" font-size="12.0">Line</text>
</svg>