<svg
 width="800.0"
 height="500.0"
 viewBox="0 0 800.0 500.0"
 version="1.2"
 xmlns="http://www.w3.org/2000/svg"
>
<text fill="#000000" x="400.0" y="30.0" text-anchor="middle" font-family="Arial, Helvetica, sans-serif" font-size="16.0" font-weight="bold">Quarterly Revenue Comparison</text>
<line stroke="#e5e7eb" stroke-width="1" x1="100.0" y1="80.0" x2="740.0" y2="80.0" stroke-dasharray="3,3"/>
<line stroke="#e5e7eb" stroke-width="1" x1="100.0" y1="148.0" x2="740.0" y2="148.0" stroke-dasharray="3,3"/>
<line stroke="#e5e7eb" stroke-width="1" x1="100.0" y1="216.0" x2="740.0" y2="216.0" stroke-dasharray="3,3"/>
<line stroke="#e5e7eb" stroke-width="1" x1="100.0" y1="284.0" x2="740.0" y2="284.0" stroke-dasharray="3,3"/>
<line stroke="#e5e7eb" stroke-width="1" x1="100.0" y1="352.0" x2="740.0" y2="352.0" stroke-dasharray="3,3"/>
<line stroke="#e5e7eb" stroke-width="1" x1="180.0" y1="80.0" x2="180.0" y2="420.0" stroke-dasharray="3,3"/>
<line stroke="#e5e7eb" stroke-width="1" x1="340.0" y1="80.0" x2="340.0" y2="420.0" stroke-dasharray="3,3"/>
<line stroke="#e5e7eb" stroke-width="1" x1="500.0" y1="80.0" x2="500.0" y2="420.0" stroke-dasharray="3,3"/>
<line stroke="#e5e7eb" stroke-width="1" x1="660.0" y1="80.0" x2="660.0" y2="420.0" stroke-dasharray="3,3"/>
<line stroke="#000000" stroke-width="2" x1="100.0" y1="420.0" x2="740.0" y2="420.0"/>
<line stroke="#000000" stroke-width="2" x1="100.0" y1="80.0" x2="100.0" y2="420.0"/>
<rect fill="#2563eb" fill-opacity="0.8" stroke="#2563eb" stroke-width="1" x="132.0" y="199.0" width="96.0" height="221.0" fill-opacity="0.8"/>
<rect fill="#2563eb" fill-opacity="0.8" stroke="#2563eb" stroke-width="1" x="292.0" y="165.0" width="96.0" height="255.0" fill-opacity="0.8"/>
<rect fill="#2563eb" fill-opacity="0.8" stroke="#2563eb" stroke-width="1" x="452.0" y="131.0" width="96.0" height="289.0" fill-opacity="0.8"/>
<rect fill="#2563eb" fill-opacity="0.8" stroke="#2563eb" stroke-width="1" x="612.0" y="97.0" width="96.0" height="323.0" fill-opacity="0.8"/>
<rect fill="#7c3aed" fill-opacity="0.8" stroke="#7c3aed" stroke-width="1" x="132.0" y="232.99999999999997" width="96.0" height="187.00000000000003" fill-opacity="0.8"/>
<rect fill="#7c3aed" fill-opacity="0.8" stroke="#7c3aed" stroke-width="1" x="292.0" y="182.00000000000003" width="96.0" height="237.99999999999997" fill-opacity="0.8"/>
<rect fill="#7c3aed" fill-opacity="0.8" stroke="#7c3aed" stroke-width="1" x="452.0" y="148.0" width="96.0" height="272.0" fill-opacity="0.8"/>
<rect fill="#7c3aed" fill-opacity="0.8" stroke="#7c3aed" stroke-width="1" x="612.0" y="114.0" width="96.0" height="306.0" fill-opacity="0.8"/>
<rect fill="#db2777" fill-opacity="0.8" stroke="#db2777" stroke-width="1" x="132.0" y="267.0" width="96.0" height="153.0" fill-opacity="0.8"/>
<rect fill="#db2777" fill-opacity="0.8" stroke="#db2777" stroke-width="1" x="292.0" y="216.0" width="96.0" height="204.0" fill-opacity="0.8"/>
<rect fill="#db2777" fill-opacity="0.8" stroke="#db2777" stroke-width="1" x="452.0" y="165.0" width="96.0" height="255.0" fill-opacity="0.8"/>
<rect fill="#db2777" fill-opacity="0.8" stroke="#db2777" stroke-width="1" x="612.0" y="131.0" width="96.0" height="289.0" fill-opacity="0.8"/>
<text fill="#000000" x="180.0" y="440.0" text-anchor="middle" font-family="Arial, Helvetica, sans-serif" font-size="12.0">Q1</text>
<text fill="#000000" x="340.0" y="440.0" text-anchor="middle" font-family="Arial, Helvetica, sans-serif" font-size="12.0">Q2</text>
<text fill="#000000" x="500.0" y="440.0" text-anchor="middle" font-family="Arial, Helvetica, sans-serif" font-size="12.0">Q3</text>
<text fill="#000000" x="660.0" y="440.0" text-anchor="middle" font-family="Arial, Helvetica, sans-serif" font-size="12.0">Q4</text>
<text transform="rotate(-90, 20, 250)" fill="#000000" x="20.0" y="250.0" text-anchor="middle" font-family="Arial, Helvetica, sans-serif" font-size="14.0" font-weight="bold">Revenue (Million USD)</text>
<text fill="#000000" x="90.0" y="84.0" text-anchor="end" font-family="Arial, Helvetica, sans-serif" font-size="12.0">100.0</text>
<text fill="#000000" x="90.0" y="152.0" text-anchor="end" font-family="Arial, Helvetica, sans-serif" font-size="12.0">80.0</text>
<text fill="#000000" x="90.0" y="220.0" text-anchor="end" font-family="Arial, Helvetica, sans-serif" font-size="12.0">60.0</text>
<text fill="#000000" x="90.0" y="288.0" text-anchor="end" font-family="Arial, Helvetica, sans-serif" font-size="12.0">40.0</text>
<text fill="#000000" x="90.0" y="356.0" text-anchor="end" font-family="Arial, Helvetica, sans-serif" font-size="12.0">20.0</text>
<rect fill="#2563eb" stroke="none" x="650.0" y="52.0" width="15.0" height="15.0"/>
<text fill="#000000" x="670.0" y="64.0" text-anchor="start" font-family="Arial, Helvetica, sans-serif" font-size="12.0">Bar</text>
<rect fill="#7c3aed" stroke="none" x="650.0" y="77.0" width="15.0" height="15.0"/>
<text fill="#000000" x="670.0" y="89.0" text-anchor="start" font-family="Arial, Helvetica, sans-serif" font-size="12.0">Bar</text>
<rect fill="#db2777" stroke="none" x="650.0" y="102.0" width="15.0" height="15.0"/>
<text fill="#000000" x="670.0" y="114.0" text-anchor="start" font-family="Arial, Helvetica, sans-serif" font-size="12.0">Bar</text>
</svg>