<svg id="my-svg" width="100%" xmlns="http://www.w3.org/2000/svg" xmlns:xlink="http://www.w3.org/1999/xlink" style="max-width: 586.312px; background-color: white;" viewBox="-128.3125 -19 586.3125 263.2366027832031" role="graphics-document document" aria-roledescription="gitGraph"><style>#my-svg{font-family:"trebuchet ms",verdana,arial,sans-serif;font-size:16px;fill:#333;}@keyframes edge-animation-frame{from{stroke-dashoffset:0;}}@keyframes dash{to{stroke-dashoffset:0;}}#my-svg .edge-animation-slow{stroke-dasharray:9,5!important;stroke-dashoffset:900;animation:dash 50s linear infinite;stroke-linecap:round;}#my-svg .edge-animation-fast{stroke-dasharray:9,5!important;stroke-dashoffset:900;animation:dash 20s linear infinite;stroke-linecap:round;}#my-svg .error-icon{fill:#552222;}#my-svg .error-text{fill:#552222;stroke:#552222;}#my-svg .edge-thickness-normal{stroke-width:1px;}#my-svg .edge-thickness-thick{stroke-width:3.5px;}#my-svg .edge-pattern-solid{stroke-dasharray:0;}#my-svg .edge-thickness-invisible{stroke-width:0;fill:none;}#my-svg .edge-pattern-dashed{stroke-dasharray:3;}#my-svg .edge-pattern-dotted{stroke-dasharray:2;}#my-svg .marker{fill:#333333;stroke:#333333;}#my-svg .marker.cross{stroke:#333333;}#my-svg svg{font-family:"trebuchet ms",verdana,arial,sans-serif;font-size:16px;}#my-svg p{margin:0;}#my-svg .commit-id,#my-svg .commit-msg,#my-svg .branch-label{fill:lightgrey;color:lightgrey;font-family:'trebuchet ms',verdana,arial,sans-serif;font-family:var(--mermaid-font-family);}#my-svg .branch-label0{fill:#ff0000;}#my-svg .commit0{stroke:#550055;fill:#550055;}#my-svg .commit-highlight0{stroke:hsl(60, 100%, 3.7254901961%);fill:hsl(60, 100%, 3.7254901961%);}#my-svg .label0{fill:#550055;}#my-svg .arrow0{stroke:#550055;}#my-svg .branch-label1{fill:#00ff00;}#my-svg .commit1{stroke:hsl(60, 100%, 43.5294117647%);fill:hsl(60, 100%, 43.5294117647%);}#my-svg .commit-highlight1{stroke:rgb(0, 0, 160.5);fill:rgb(0, 0, 160.5);}#my-svg .label1{fill:hsl(60, 100%, 43.5294117647%);}#my-svg .arrow1{stroke:hsl(60, 100%, 43.5294117647%);}#my-svg .branch-label2{fill:#0000ff;}#my-svg .commit2{stroke:hsl(80, 100%, 46.2745098039%);fill:hsl(80, 100%, 46.2745098039%);}#my-svg .commit-highlight2{stroke:rgb(48.8333333334, 0, 146.5000000001);fill:rgb(48.8333333334, 0, 146.5000000001);}#my-svg .label2{fill:hsl(80, 100%, 46.2745098039%);}#my-svg .arrow2{stroke:hsl(80, 100%, 46.2745098039%);}#my-svg .branch-label3{fill:#ffffff;}#my-svg .commit3{stroke:hsl(210, 100%, 46.2745098039%);fill:hsl(210, 100%, 46.2745098039%);}#my-svg .commit-highlight3{stroke:rgb(146.5000000001, 73.2500000001, 0);fill:rgb(146.5000000001, 73.2500000001, 0);}#my-svg .label3{fill:hsl(210, 100%, 46.2745098039%);}#my-svg .arrow3{stroke:hsl(210, 100%, 46.2745098039%);}#my-svg .branch-label4{fill:black;}#my-svg .commit4{stroke:hsl(180, 100%, 46.2745098039%);fill:hsl(180, 100%, 46.2745098039%);}#my-svg .commit-highlight4{stroke:rgb(146.5000000001, 0, 0);fill:rgb(146.5000000001, 0, 0);}#my-svg .label4{fill:hsl(180, 100%, 46.2745098039%);}#my-svg .arrow4{stroke:hsl(180, 100%, 46.2745098039%);}#my-svg .branch-label5{fill:black;}#my-svg .commit5{stroke:hsl(150, 100%, 46.2745098039%);fill:hsl(150, 100%, 46.2745098039%);}#my-svg .commit-highlight5{stroke:rgb(146.5000000001, 0, 73.2500000001);fill:rgb(146.5000000001, 0, 73.2500000001);}#my-svg .label5{fill:hsl(150, 100%, 46.2745098039%);}#my-svg .arrow5{stroke:hsl(150, 100%, 46.2745098039%);}#my-svg .branch-label6{fill:black;}#my-svg .commit6{stroke:hsl(300, 100%, 46.2745098039%);fill:hsl(300, 100%, 46.2745098039%);}#my-svg .commit-highlight6{stroke:rgb(0, 146.5000000001, 0);fill:rgb(0, 146.5000000001, 0);}#my-svg .label6{fill:hsl(300, 100%, 46.2745098039%);}#my-svg .arrow6{stroke:hsl(300, 100%, 46.2745098039%);}#my-svg .branch-label7{fill:black;}#my-svg .commit7{stroke:hsl(0, 100%, 46.2745098039%);fill:hsl(0, 100%, 46.2745098039%);}#my-svg .commit-highlight7{stroke:rgb(0, 146.5000000001, 146.5000000001);fill:rgb(0, 146.5000000001, 146.5000000001);}#my-svg .label7{fill:hsl(0, 100%, 46.2745098039%);}#my-svg .arrow7{stroke:hsl(0, 100%, 46.2745098039%);}#my-svg .branch{stroke-width:1;stroke:#333333;stroke-dasharray:2;}#my-svg .commit-label{font-size:10px;fill:#000021;}#my-svg .commit-label-bkg{font-size:10px;fill:#ffffde;opacity:0.5;}#my-svg .tag-label{font-size:10px;fill:#131300;}#my-svg .tag-label-bkg{fill:#ECECFF;stroke:hsl(240, 60%, 86.2745098039%);}#my-svg .tag-hole{fill:#333;}#my-svg .commit-merge{stroke:#ECECFF;fill:#ECECFF;}#my-svg .commit-reverse{stroke:#ECECFF;fill:#ECECFF;stroke-width:3;}#my-svg .commit-highlight-inner{stroke:#ECECFF;fill:#ECECFF;}#my-svg .arrow{stroke-width:8;stroke-linecap:round;fill:none;}#my-svg .gitTitleText{text-anchor:middle;font-size:18px;fill:#333;}#my-svg :root{--mermaid-font-family:"trebuchet ms",verdana,arial,sans-serif;}</style><g/><g class="commit-bullets"/><g class="commit-labels"/><g><line x1="0" y1="0" x2="450" y2="0" class="branch branch0"/><rect class="branchLabelBkg label0" rx="4" ry="4" x="-39" y="-1.5" width="53" height="23" transform="translate(-19, -9.5)"/><g class="branchLabel"><g class="label branch-label0" transform="translate(-49, -10.5)"><text><tspan xml:space="preserve" dy="1em" x="0" class="row">main</tspan></text></g></g><line x1="0" y1="90" x2="450" y2="90" class="branch branch1"/><rect class="branchLabelBkg label1" rx="4" ry="4" x="-60.421875" y="-1.5" width="74.421875" height="23" transform="translate(-19, 80.5)"/><g class="branchLabel"><g class="label branch-label1" transform="translate(-70.421875, 79.5)"><text><tspan xml:space="preserve" dy="1em" x="0" class="row">develop</tspan></text></g></g><line x1="0" y1="180" x2="450" y2="180" class="branch branch2"/><rect class="branchLabelBkg label2" rx="4" ry="4" x="-101.3125" y="-1.5" width="115.3125" height="23" transform="translate(-19, 170.5)"/><g class="branchLabel"><g class="label branch-label2" transform="translate(-111.3125, 169.5)"><text><tspan xml:space="preserve" dy="1em" x="0" class="row">release/1.0.0</tspan></text></g></g></g><g class="commit-arrows"><path d="M 10 0 L 10 70 A 20 20, 0, 0, 0, 30 90 L 60 90" class="arrow arrow1"/><path d="M 60 90 L 110 90" class="arrow arrow1"/><path d="M 110 90 L 110 160 A 20 20, 0, 0, 0, 130 180 L 160 180" class="arrow arrow2"/><path d="M 110 90 L 210 90" class="arrow arrow1"/><path d="M 210 90 L 260 90" class="arrow arrow1"/><path d="M 260 90 L 310 90" class="arrow arrow1"/><path d="M 310 90 L 360 90" class="arrow arrow1"/><path d="M 160 180 L 410 180" class="arrow arrow2"/><path d="M 360 90 L 390 90 A 20 20, 0, 0, 1, 410 110 L 410 180" class="arrow arrow1"/></g><g class="commit-bullets"><circle cx="10" cy="0" r="10" class="commit 0-1df2b82 commit0"/><circle cx="60" cy="90" r="10" class="commit 1-f656051 commit1"/><circle cx="110" cy="90" r="10" class="commit 2-9132d30 commit1"/><circle cx="160" cy="180" r="10" class="commit 3-1e4c4e9 commit2"/><circle cx="210" cy="90" r="10" class="commit 4-4ba6c87 commit1"/><circle cx="260" cy="90" r="10" class="commit 5-ac0f6a9 commit1"/><circle cx="310" cy="90" r="10" class="commit 6-a3d6db9 commit1"/><circle cx="360" cy="90" r="10" class="commit 7-e8a9bb8 commit1"/><circle cx="410" cy="180" r="9" class="commit 8-882f9ef commit2"/><circle cx="410" cy="180" r="6" class="commit commit-merge 8-882f9ef commit2"/></g><g class="commit-labels"><g transform="translate(-28.2990625, 25.2096875) rotate(-45, 0, 0)"><rect class="commit-label-bkg" x="-14.3671875" y="13.5" width="48.734375" height="15"/><text x="-12.3671875" y="25" class="commit-label">0-1df2b82</text></g><g transform="translate(-28.0496875, 24.986562499999998) rotate(-45, 50, 90)"><rect class="commit-label-bkg" x="35.9609375" y="103.5" width="48.078125" height="15"/><text x="37.9609375" y="115" class="commit-label">1-f656051</text></g><g transform="translate(-28.762187500000003, 25.6240625) rotate(-45, 100, 90)"><rect class="commit-label-bkg" x="85.0234375" y="103.5" width="49.953125" height="15"/><text x="87.0234375" y="115" class="commit-label">2-9132d30</text></g><g transform="translate(-28.690937499999997, 25.560312500000002) rotate(-45, 150, 180)"><rect class="commit-label-bkg" x="135.1171875" y="193.5" width="49.765625" height="15"/><text x="137.1171875" y="205" class="commit-label">3-1e4c4e9</text></g><polygon class="tag-label-bkg" points="121.875,162.8  &#10;      121.875,158.8&#10;      129.875,153.3&#10;      190.125,153.3&#10;      190.125,168.3&#10;      129.875,168.3"/><circle cy="160.8" cx="125.875" r="1.5" class="tag-hole"/><text y="164" class="tag-label" x="133.875">1.0.0-beta1</text><g transform="translate(-28.6553125, 25.528437500000003) rotate(-45, 200, 90)"><rect class="commit-label-bkg" x="185.1640625" y="103.5" width="49.671875" height="15"/><text x="187.1640625" y="115" class="commit-label">4-4ba6c87</text></g><g transform="translate(-27.948749999999997, 24.896250000000002) rotate(-45, 250, 90)"><rect class="commit-label-bkg" x="236.09375" y="103.5" width="47.8125" height="15"/><text x="238.09375" y="115" class="commit-label">5-ac0f6a9</text></g><g transform="translate(-29.017500000000002, 25.8525) rotate(-45, 300, 90)"><rect class="commit-label-bkg" x="284.6875" y="103.5" width="50.625" height="15"/><text x="286.6875" y="115" class="commit-label">6-a3d6db9</text></g><g transform="translate(-28.97, 25.810000000000002) rotate(-45, 350, 90)"><rect class="commit-label-bkg" x="334.75" y="103.5" width="50.5" height="15"/><text x="336.75" y="115" class="commit-label">7-e8a9bb8</text></g><polygon class="tag-label-bkg" points="371.875,162.8  &#10;      371.875,158.8&#10;      379.875,153.3&#10;      440.125,153.3&#10;      440.125,168.3&#10;      379.875,168.3"/><circle cy="160.8" cx="375.875" r="1.5" class="tag-hole"/><text y="164" class="tag-label" x="383.875">1.0.0-beta2</text></g></svg>